<svg width="624" height="139" viewBox="0 0 624 139" fill="none" xmlns="http://www.w3.org/2000/svg">
<path d="M531 136.5L531.091 137.997L531 136.5ZM94.4997 9L94.5259 10.4998L94.4997 9ZM12.7824 123.318C13.5103 123.714 14.4211 123.444 14.8167 122.716L21.2631 110.855C21.6587 110.127 21.3893 109.216 20.6614 108.821C19.9335 108.425 19.0228 108.694 18.6272 109.422L12.897 119.966L2.35356 114.236C1.62568 113.84 0.714934 114.109 0.319349 114.837C-0.0762362 115.565 0.193139 116.476 0.921016 116.872L12.7824 123.318ZM14.9371 121.575C13.9883 118.367 12.9434 114.849 11.9079 111.092L9.01571 111.889C10.06 115.678 11.1133 119.223 12.0603 122.425L14.9371 121.575ZM7.19272 89.891C6.09616 82.8294 5.53479 75.5442 5.97003 68.3869L2.97556 68.2048C2.52382 75.6336 3.10876 83.1421 4.22825 90.3513L7.19272 89.891ZM10.7185 47.6736C13.4387 41.5036 17.4597 35.7431 23.1908 30.6829L21.2052 28.4341C15.1364 33.7924 10.8619 39.9118 7.97343 46.4634L10.7185 47.6736ZM41.3711 19.6386C47.2953 17.1779 54.1458 15.1342 62.0483 13.6048L61.4783 10.6594C53.4054 12.2219 46.3568 14.3192 40.2203 16.868L41.3711 19.6386ZM83.6343 10.936C87.1155 10.7127 90.7441 10.5659 94.5259 10.4998L94.4734 7.50023C90.6477 7.56711 86.9724 7.71576 83.4423 7.94217L83.6343 10.936ZM94.5259 10.4998C98.3395 10.4331 102.144 10.4685 105.94 10.6003L106.045 7.60215C102.197 7.46852 98.3405 7.43262 94.4734 7.50023L94.5259 10.4998ZM128.681 12.5117C136.203 13.5026 143.7 14.8336 151.181 16.4606L151.819 13.5291C144.263 11.8859 136.684 10.54 129.073 9.5374L128.681 12.5117ZM173.352 22.1183C180.618 24.2325 187.875 26.5861 195.129 29.1379L196.125 26.3079C188.824 23.74 181.515 21.3691 174.191 19.2377L173.352 22.1183ZM216.572 37.2184C223.62 40.0373 230.672 43.0044 237.733 46.0821L238.932 43.3319C231.847 40.2443 224.767 37.265 217.686 34.433L216.572 37.2184ZM258.663 55.4738C265.584 58.6558 272.52 61.9068 279.477 65.192L280.758 62.4793C273.796 59.1919 266.85 55.9361 259.916 52.7481L258.663 55.4738ZM300.24 75.0292C307.149 78.301 314.084 81.5718 321.051 84.8065L322.314 82.0855C315.358 78.8556 308.431 75.5886 301.524 72.3178L300.24 75.0292ZM341.986 94.341C348.993 97.4581 356.038 100.506 363.124 103.451L364.275 100.68C357.215 97.7469 350.194 94.7089 343.206 91.6L341.986 94.341ZM384.528 111.946C391.719 114.655 398.959 117.227 406.252 119.627L407.19 116.777C399.941 114.392 392.741 111.834 385.586 109.138L384.528 111.946ZM428.323 126.283C435.735 128.306 443.206 130.122 450.743 131.697L451.356 128.76C443.883 127.198 436.471 125.397 429.113 123.389L428.323 126.283ZM473.477 135.655C481.062 136.704 488.716 137.484 496.444 137.961L496.629 134.967C488.98 134.494 481.401 133.722 473.888 132.683L473.477 135.655ZM519.527 138.46C523.363 138.386 527.217 138.233 531.091 137.997L530.908 135.003C527.077 135.236 523.264 135.388 519.469 135.46L519.527 138.46ZM531.091 137.997C535.585 137.723 539.884 137.359 543.995 136.909L543.669 133.926C539.608 134.371 535.357 134.732 530.908 135.003L531.091 137.997ZM569.539 132.477C579.041 130.095 587.107 127.079 593.891 123.533L592.502 120.875C585.962 124.293 578.124 127.232 568.81 129.567L569.539 132.477ZM614.23 107.18C619.958 99.8073 623.005 91.5584 624.009 82.9141L621.029 82.5677C620.082 90.7197 617.222 98.4393 611.861 105.339L614.23 107.18ZM621.731 56.9239C619.579 48.7172 616.254 40.5441 612.248 32.7449L609.58 34.1154C613.508 41.764 616.744 49.7317 618.829 57.6848L621.731 56.9239ZM598.62 10.715C595.998 7.10691 593.316 3.69556 590.646 0.532526L588.353 2.46747C590.977 5.57542 593.614 8.9296 596.193 12.4785L598.62 10.715Z" fill="#DDDFEB"/>
</svg>
