<svg width="437" height="139" viewBox="0 0 437 139" fill="none" xmlns="http://www.w3.org/2000/svg">
<path d="M149.5 137.5L149.516 139L149.5 137.5ZM426.092 138.694C426.751 139.195 427.692 139.067 428.194 138.408L436.366 127.663C436.868 127.003 436.74 126.062 436.08 125.561C435.421 125.059 434.48 125.187 433.978 125.846L426.714 135.398L417.163 128.134C416.503 127.632 415.562 127.76 415.061 128.42C414.559 129.079 414.687 130.02 415.346 130.522L426.092 138.694ZM0.237726 58.3103C2.00982 61.0707 4.15193 64.0977 6.64856 67.3081L9.01675 65.4664C6.56944 62.3194 4.48052 59.3661 2.76227 56.6897L0.237726 58.3103ZM21.2896 83.7853C26.1595 88.6469 31.6438 93.6104 37.7085 98.4698L39.5844 96.1286C33.6084 91.3403 28.2051 86.45 23.4091 81.6621L21.2896 83.7853ZM55.6214 111.284C61.6461 115.109 68.0693 118.724 74.8699 122.003L76.1729 119.301C69.4835 116.076 63.162 112.517 57.2292 108.751L55.6214 111.284ZM95.2817 130.338C102.095 132.631 109.204 134.547 116.591 135.989L117.166 133.045C109.914 131.629 102.933 129.748 96.2386 127.495L95.2817 130.338ZM138.469 138.742C142.097 138.95 145.779 139.039 149.516 139L149.484 136C145.816 136.038 142.201 135.951 138.641 135.747L138.469 138.742ZM149.516 139C153.607 138.957 157.5 138.675 161.211 138.171L160.808 135.198C157.226 135.684 153.457 135.959 149.484 136L149.516 139ZM183.597 131.664C190.862 128.243 197.21 123.771 202.887 118.563L200.859 116.352C195.376 121.383 189.276 125.674 182.319 128.95L183.597 131.664ZM218.15 101.038C222.6 94.8506 226.658 88.2524 230.543 81.5307L227.946 80.0293C224.084 86.7096 220.083 93.2128 215.715 99.2862L218.15 101.038ZM241.791 61.4742C245.59 54.7112 249.438 48.0959 253.569 41.8817L251.071 40.2209C246.877 46.5301 242.985 53.2234 239.175 60.0049L241.791 61.4742ZM267.618 24.1123C272.897 18.7016 278.748 14.0785 285.443 10.5507L284.044 7.89659C277.025 11.5951 270.928 16.4235 265.471 22.0174L267.618 24.1123ZM306.7 3.77101C310.26 3.26551 314.02 3 318 3V0C313.886 0 309.985 0.274464 306.279 0.800808L306.7 3.77101ZM318 3C322 3 325.867 3.28164 329.603 3.82037L330.031 0.851066C326.151 0.291624 322.141 0 318 0V3ZM351.748 10.5235C358.764 13.8608 365.217 18.1925 371.136 23.2795L373.092 21.0041C366.993 15.7634 360.319 11.2784 353.036 7.81438L351.748 10.5235ZM387.114 40.2888C391.854 46.4259 396.117 53.0413 399.931 59.9108L402.554 58.4548C398.678 51.472 394.333 44.7274 389.488 38.455L387.114 40.2888ZM410.068 81.1043C413.133 88.5634 415.734 96.0432 417.904 103.284L420.777 102.423C418.582 95.0959 415.948 87.5224 412.843 79.9642L410.068 81.1043ZM423.579 126.141C424.384 130.239 425.026 134.116 425.514 137.702L428.486 137.298C427.99 133.65 427.339 129.715 426.523 125.563L423.579 126.141Z" fill="#DDDFEB"/>
</svg>
