<svg width="434" height="195" viewBox="0 0 434 195" fill="none" xmlns="http://www.w3.org/2000/svg">
<path opacity="0.8" d="M333.471 33.7346C340.368 41.5836 331.5 51.3955 326.574 54.339C323.421 72.3923 298.986 69.0564 287.162 65.1318C271.398 75.3359 245.78 70.6917 234.942 67.0941C226.271 77.2982 210.31 71.9999 203.413 68.0753C188.305 71.9999 158.484 75.3359 160.06 57.2825C161.637 39.2291 181.08 39.2945 190.604 41.5839C193.757 29.81 214.251 30.7911 224.104 32.7535C224.892 16.2699 244.138 16.0737 253.662 18.036C256.815 3.12233 272.054 3.97267 279.28 6.26204C284.206 -2.56841 294.059 -0.606086 302.927 3.31856C311.794 7.24321 310.809 14.1113 311.794 18.036C312.78 21.9606 312.78 26.8664 317.706 26.8664C322.632 26.8664 325.588 24.764 333.471 33.7346Z" fill="white"/>
<path d="M132.042 89.2412L68.6629 163.683C58.1591 176.02 66.9268 195 83.1298 195H401.13C415.748 195 424.89 179.184 417.595 166.517L337.189 26.9158C330.874 15.9506 315.805 14.107 307.033 23.2261L215.827 118.032C208.326 125.828 195.839 125.797 188.377 117.964L160.266 88.4533C152.488 80.2883 139.352 80.655 132.042 89.2412Z" fill="#CFD1E3"/>
<path opacity="0.8" d="M3.55088 90.4227C-1.43935 96.8635 5.9126 104.095 9.8788 106.159C13.1773 120.082 32.0065 116.337 41.0088 112.724C53.7375 119.938 73.4239 115.118 81.676 111.806C88.8927 119.352 101.046 114.475 106.22 111.093C118.143 113.444 141.471 114.646 139.398 100.649C137.324 86.652 122.22 87.6142 114.927 89.8449C111.924 80.816 96.0462 82.5412 88.4828 84.5324C87.0954 71.722 72.1322 72.471 64.824 74.4468C61.6731 62.9708 49.8723 64.3477 44.3658 66.4707C40.1228 59.8191 32.5594 61.8103 25.8538 65.2848C19.1483 68.7593 20.2367 74.0661 19.6556 77.1712C19.0746 80.2763 19.3052 84.0999 15.4774 84.3308C11.6496 84.5617 9.2542 83.0615 3.55088 90.4227Z" fill="white"/>
</svg>
