<svg width="186" height="51" viewBox="0 0 186 51" fill="none" xmlns="http://www.w3.org/2000/svg">
<g id="&#208;&#155;&#208;&#190;&#208;&#179;&#208;&#190;&#209;&#130;&#208;&#184;&#208;&#191; &#208;&#179;&#208;&#190;&#209;&#128;&#208;&#184;&#208;&#183;&#208;&#190;&#208;&#189;&#209;&#130;&#208;&#176;&#208;&#187;&#209;&#140;&#208;&#189;&#209;&#139;&#208;&#185; &#209;&#129;&#208;&#184;&#208;&#189;&#208;&#184;&#208;&#185; SVG 2" clip-path="url(#clip0_85_770)">
<g id="Group">
<g id="Group_2">
<g id="Group_3">
<path id="Vector" fill-rule="evenodd" clip-rule="evenodd" d="M16.2263 13.0754C19.5555 11.0071 22.1175 10.3707 24.2164 10.6166C26.3152 10.8624 28.1679 12.0051 30.0207 13.8999C33.6394 17.5882 35.3185 19.888 36.3172 21.6237C36.1435 21.7538 35.883 21.9129 35.5066 22.0865C34.6526 22.506 33.4946 22.9254 32.409 23.3015C32.1051 23.1713 31.7432 23.0122 31.3958 22.882C31.1063 22.7663 30.7734 22.6361 30.4984 22.5349C31.0195 21.3344 31.2221 20.0181 31.0484 18.673C30.7589 17.3423 29.6154 14.5508 27.4008 13.9143C27.3574 13.8999 27.2995 13.9143 27.256 13.9433C24.4769 15.7513 22.2188 15.7513 20.6411 15.1583C20.5687 15.1293 20.5108 15.1004 20.4385 15.0859C19.9608 14.8834 19.5555 14.6375 19.2226 14.3627C19.1647 14.3193 19.1068 14.2615 19.0489 14.2181C18.8607 14.059 18.5712 14.2036 18.6146 14.4495C18.6291 14.5363 18.6436 14.6086 18.6436 14.6954C18.7015 15.1293 18.716 15.6211 18.687 16.1129C18.687 16.1997 18.6725 16.272 18.6725 16.3588C18.4988 18.5139 17.4856 20.9872 14.417 22.2456C14.3446 22.2745 14.3012 22.3469 14.3157 22.4336C14.967 26.6716 18.4554 28.3928 23.29 27.7419C25.8954 27.3803 28.0956 26.0786 29.4996 24.2706C29.572 24.2995 29.6444 24.3284 29.7167 24.3429C29.7167 24.3429 29.7457 24.3573 29.8036 24.3718C29.8615 24.3863 29.9339 24.4152 30.0352 24.4586C30.2234 24.5309 30.4405 24.6177 30.6865 24.7189C31.1497 24.907 31.6564 25.1239 31.9893 25.2686C32.3222 25.4421 32.8288 25.8616 33.4657 26.6427C34.1026 27.4092 34.7974 28.4507 35.5356 29.7379C36.9975 32.3125 38.5029 35.8128 39.7188 39.9495C40.7465 43.4643 41.6005 45.6772 42.1939 47.1236C42.2953 47.3551 42.3821 47.572 42.4545 47.7601L42.4834 47.8179C42.4255 47.8035 42.3676 47.789 42.3097 47.7745C41.1807 47.4852 39.5885 47.1092 37.7936 46.8488C35.2027 46.4728 32.0616 46.3137 29.1812 47.0803C29.4417 46.5885 29.6878 46.0822 29.9339 45.5615C31.0195 43.2039 31.9458 40.557 32.4669 38.7924C32.6406 38.2283 32.8288 37.2158 32.9446 36.2033C33.0459 35.321 33.1183 34.2941 33.0025 33.5275C33.017 33.2816 32.9446 33.0213 32.7564 32.8043C32.4235 32.4427 31.8735 32.3993 31.4537 32.6741C28.3561 34.7425 25.8954 35.9575 24.2743 36.4203C23.4347 36.6517 22.9715 36.6517 22.7689 36.5939C22.7834 36.5649 22.7978 36.5216 22.8557 36.4492C22.9571 36.2901 23.1308 36.0876 23.3913 35.8273C23.8979 35.321 24.6361 34.728 25.5046 34.1061C26.8073 33.1659 28.2982 32.1968 29.6009 31.3579C29.9483 31.1265 30.2957 30.9095 30.6142 30.707C30.7734 30.6636 30.9326 30.5769 31.0629 30.4467C31.4103 30.114 31.4392 29.5644 31.1642 29.1738C30.5707 28.3349 29.7602 27.9299 28.8193 27.7419C27.9219 27.5539 26.7929 27.5539 25.5046 27.5539C24.5493 27.5539 23.4347 27.7708 22.436 28.0891C21.6978 28.3205 20.9595 28.6387 20.3516 29.0003C20.2792 28.9569 20.2069 28.899 20.12 28.8556C20.0621 28.8267 20.0042 28.7833 19.9318 28.7544C18.687 28.0167 17.1093 27.091 14.2143 27.2501C13.7656 27.2791 13.3169 27.3225 12.8971 27.4237C12.9261 26.9753 12.9261 26.5125 12.9261 26.093C12.9116 25.095 12.8682 24.1838 12.8537 23.909C12.8537 23.8366 12.8392 23.7643 12.8392 23.6775C12.7669 22.6795 12.6366 20.7558 12.9985 18.7164C13.3024 16.4745 14.2288 14.3193 16.2263 13.0754ZM10.7983 28.2048C10.8851 27.6985 10.9141 26.903 10.8996 26.0786C10.8851 25.1384 10.8417 24.2706 10.8272 23.9957C10.8272 23.9234 10.8128 23.8511 10.8128 23.7643C10.7404 22.7663 10.5957 20.6256 10.9865 18.3548C11.4062 15.8959 12.5063 13.0899 15.1841 11.4121C18.716 9.21355 21.7267 8.36018 24.4479 8.67839C27.1692 8.99659 29.3983 10.4719 31.4248 12.5403C35.3329 16.5323 37.1278 19.0346 38.2134 21.0017C38.416 21.3633 38.445 21.7683 38.3147 22.1444C38.1989 22.477 37.9963 22.7374 37.8081 22.9109C37.4318 23.2725 36.8962 23.5908 36.3751 23.8366C35.7672 24.1259 35.0579 24.4152 34.3486 24.6756C34.5513 24.878 34.7539 25.1095 34.9421 25.3554C35.6658 26.2377 36.433 27.3803 37.2002 28.7399C38.7345 31.4592 40.3122 35.1041 41.5571 39.371C42.5558 42.7989 43.3953 44.9685 43.9599 46.3426C44.0467 46.5451 44.1191 46.7331 44.1914 46.9212C44.3651 47.3406 44.5099 47.6877 44.6112 47.977C44.6836 48.1795 44.756 48.3965 44.7994 48.599C44.8428 48.8015 44.8718 49.0618 44.7994 49.3366C44.6981 49.7706 44.3507 49.9586 44.1914 50.0309C44.0322 50.0888 43.902 50.1032 43.8441 50.1032C43.7283 50.1032 43.6125 50.0888 43.5546 50.0888C43.4243 50.0743 43.2651 50.0309 43.1058 49.9875C42.9321 49.9441 42.715 49.8863 42.469 49.8284C42.2518 49.7706 42.0202 49.7127 41.7742 49.6548C40.6741 49.38 39.1543 49.0184 37.4462 48.7725C34.0157 48.2808 30.0641 48.2518 27.1547 49.9441C26.7784 50.3347 26.3586 50.6673 25.9244 50.8698C25.0848 51.2604 24.3466 50.6529 24.1729 50.0309C23.7097 48.2808 22.9426 45.8508 22.0886 43.985C21.6543 43.0303 21.2346 42.2927 20.8582 41.8443C20.699 41.6563 20.5832 41.555 20.5108 41.5116C20.3371 41.6129 20.0476 41.8877 19.6713 42.4373C19.2515 43.0448 18.8318 43.8259 18.412 44.7226C17.5869 46.5162 16.8632 48.5845 16.4145 50.0454C16.2118 50.6818 15.4302 51.2314 14.6196 50.812C13.5485 50.2623 11.9708 48.7292 10.7549 45.6772C9.92982 43.5944 9.06133 41.2513 8.48235 39.0094C7.91783 36.8108 7.59939 34.5834 7.97573 32.7898C8.35207 30.9818 9.06133 29.5933 10.1614 28.6387C10.3785 28.5085 10.5812 28.3494 10.7983 28.2048ZM20.5543 17.1832C20.2358 19.3528 19.1792 21.7683 16.5737 23.3449C16.9356 24.2272 17.5001 24.8202 18.1949 25.2107C19.2515 25.8037 20.8582 26.093 23.015 25.7893C27.01 25.2396 29.4851 22.0431 29.1233 19.0201C29.0075 18.5428 28.7325 17.7762 28.2982 17.082C28.0232 16.648 27.7337 16.3298 27.4587 16.0984C25.5336 17.1687 23.7242 17.5448 22.103 17.4436C21.5385 17.4146 21.0319 17.3278 20.5543 17.1832ZM14.2578 29.1738C16.5592 29.0437 17.7317 29.7379 18.8897 30.4178C18.9476 30.4467 19.0055 30.4901 19.0778 30.519C19.266 30.6347 19.4252 30.7504 19.6134 30.9095C19.9174 31.1699 20.3516 31.1988 20.6845 31.0397C20.7858 31.0108 20.8727 30.9529 20.9595 30.8951C21.3648 30.5769 22.103 30.2153 22.9715 29.9404C23.84 29.6656 24.7519 29.4921 25.4467 29.4921C26.7929 29.4921 27.7048 29.5065 28.3706 29.6367C28.4285 29.6512 28.4864 29.6656 28.5298 29.6656C27.2126 30.519 25.6493 31.517 24.3032 32.5006C23.4202 33.1514 22.5807 33.8023 21.9728 34.4098C21.6688 34.7136 21.3793 35.0318 21.1767 35.35C20.974 35.6537 20.7714 36.0587 20.7714 36.536C20.7714 36.9555 20.8727 37.3749 21.1477 37.751C21.4227 38.1271 21.7991 38.344 22.1899 38.4597C22.9281 38.6767 23.84 38.561 24.7664 38.2862C26.3731 37.8378 28.5009 36.8108 31.0195 35.2487C31.005 35.4801 30.976 35.7116 30.9471 35.9719C30.8313 36.9265 30.6576 37.8088 30.5418 38.2138C30.0352 39.9206 29.1522 42.4807 28.11 44.7226C27.589 45.8508 27.0389 46.8778 26.5034 47.6733C26.2573 48.0349 26.0257 48.3242 25.823 48.5411C25.3454 46.8633 24.6651 44.8383 23.9124 43.175C23.4637 42.177 22.9426 41.2368 22.3925 40.5859C22.1175 40.2533 21.7701 39.9495 21.3793 39.747C20.9451 39.5445 20.424 39.4577 19.9029 39.6747C19.1647 39.964 18.5712 40.6582 18.0936 41.3525C17.5869 42.0757 17.1093 42.987 16.675 43.9271C15.9658 45.4603 15.3289 47.196 14.8657 48.5845C14.2288 47.9915 13.3748 46.8778 12.6076 44.983C11.8115 42.987 11.0154 40.8029 10.4654 38.749C11.9563 39.0961 13.5051 39.2408 14.7933 39.1974C15.6618 39.1685 16.5013 39.0383 17.1527 38.7779C17.7606 38.532 18.5712 37.9535 18.4699 36.9121C18.4265 36.3914 18.0936 36.0298 17.8475 35.8128C17.5869 35.5814 17.254 35.3934 16.9211 35.2343C16.2553 34.9016 15.3723 34.5978 14.4604 34.3375C12.9695 33.9036 11.2615 33.542 9.90087 33.2961C9.90087 33.2816 9.90087 33.2672 9.91534 33.2527C10.2483 31.705 10.7983 30.7504 11.4641 30.1719C12.1444 29.5644 13.0419 29.2462 14.2578 29.1738ZM9.81402 35.2632C9.84297 35.6826 9.90087 36.131 9.97324 36.6083C11.551 37.0856 13.3169 37.2881 14.692 37.2448C15.3289 37.2158 15.821 37.1435 16.1539 37.0423C16.1105 37.0278 16.0671 36.9989 16.0237 36.9844C15.5026 36.724 14.7644 36.4637 13.8814 36.2178C12.5932 35.8273 11.0878 35.4946 9.81402 35.2632ZM16.5592 36.8687C16.5737 36.8542 16.5737 36.8542 16.5737 36.8542C16.5882 36.8542 16.5737 36.8542 16.5592 36.8687Z" fill="#484D72"/>
</g>
<g id="Group_4">
<path id="Vector_2" d="M48.1284 49.0329C47.6073 49.0329 47.1876 48.6134 47.1876 48.0927C47.1876 47.572 47.6073 47.1526 48.1284 47.1526C49.6338 47.1526 50.8641 45.9231 50.8641 44.4189V6.29183C50.8641 3.86188 48.8811 1.88032 46.4493 1.88032H6.2965C3.86475 1.88032 1.88171 3.86188 1.88171 6.29183V43.8982C1.88171 45.6917 3.34366 47.1526 5.13852 47.1526C5.65961 47.1526 6.07938 47.572 6.07938 48.0927C6.07938 48.6134 5.65961 49.0329 5.13852 49.0329C2.30148 49.0329 0 46.7187 0 43.8837V6.27737C0 2.82048 2.82257 0 6.2965 0H46.4493C49.9233 0 52.7458 2.82048 52.7458 6.29183V44.4189C52.7458 46.9646 50.676 49.0329 48.1284 49.0329Z" fill="#484D72"/>
</g>
</g>
<g id="Group_5">
<path id="Vector_3" d="M84.214 29.7249L75.6015 9.28729C75.4857 8.96909 75.312 8.7232 75.0659 8.54963C74.8343 8.37606 74.5448 8.28928 74.2264 8.28928C73.908 8.28928 73.6185 8.37606 73.3724 8.53517C73.1263 8.70874 72.9382 8.95462 72.7934 9.25837L64.2099 29.696C64.0073 30.1733 64.0362 30.6506 64.2823 31.1134C64.2968 31.1279 64.2968 31.1424 64.3112 31.1568C64.3257 31.1713 64.3257 31.2002 64.3402 31.2147C64.5862 31.6197 64.9481 31.8077 65.4547 31.8077C65.5126 31.8077 65.5705 31.8077 65.6284 31.7933C65.8745 31.7788 66.1061 31.7209 66.3377 31.5908C66.5982 31.4317 66.7719 31.2002 66.8877 30.8965L68.7405 26.4126H79.6399L81.4782 30.9109C81.623 31.1858 81.8112 31.4027 82.0717 31.5618C82.2888 31.692 82.5349 31.7643 82.7954 31.7788C82.8533 31.7932 82.8968 31.7933 82.9547 31.7933C83.4323 31.8077 83.7797 31.6052 84.0258 31.2292C84.0547 31.1713 84.0837 31.1279 84.1126 31.0701C84.4021 30.6506 84.4311 30.1877 84.214 29.7249ZM69.8261 23.9248L74.2554 13.236L78.6122 23.9248H69.8261Z" fill="#484D72"/>
<path id="Vector_4" d="M173.364 20.5547C173.798 19.6724 174.406 18.9926 175.187 18.5008C175.984 18.0091 176.895 17.7632 177.952 17.7632C179.53 17.7632 180.833 18.3562 181.889 19.5278C182.15 19.8026 182.439 19.9906 182.772 20.063H182.787H182.801C183.148 20.1064 183.467 20.034 183.742 19.846C184.06 19.6146 184.278 19.3253 184.35 18.9926C184.451 18.6166 184.335 18.2694 184.075 17.9512C183.293 17.0111 182.381 16.2879 181.339 15.825C180.311 15.3332 179.182 15.1018 177.967 15.1018C176.389 15.1018 174.999 15.4779 173.769 16.23C172.567 16.9532 171.627 17.9657 170.917 19.2385C170.223 20.5113 169.89 21.9577 169.89 23.5632C169.89 25.1543 170.237 26.5862 170.946 27.859C171.67 29.1319 172.669 30.1444 173.914 30.8965C175.173 31.6197 176.606 31.9957 178.184 31.9957C180.384 31.9957 182.222 31.3159 183.713 29.9563C183.988 29.6815 184.118 29.3488 184.06 28.9872C184.017 28.6401 183.843 28.3219 183.554 28.0615H183.539H183.525C183.25 27.859 182.946 27.7578 182.613 27.7867C182.28 27.8157 181.976 27.9458 181.672 28.1917C181.223 28.5822 180.702 28.886 180.123 29.074C179.559 29.2621 178.907 29.3633 178.169 29.3633C177.098 29.3633 176.143 29.1174 175.318 28.6256C174.507 28.1194 173.856 27.4251 173.378 26.5718C172.929 25.7039 172.698 24.7059 172.698 23.5922C172.712 22.4061 172.929 21.4081 173.364 20.5547Z" fill="#484D72"/>
<path id="Vector_5" d="M159.468 18.6166C158.816 17.4594 157.919 16.5916 156.79 15.9986C155.675 15.3911 154.402 15.0873 152.998 15.0873C151.68 15.0873 150.493 15.3766 149.408 15.9697C148.858 16.2734 148.38 16.6205 147.931 17.0255V16.6495C147.931 16.2155 147.801 15.8395 147.512 15.5791C147.251 15.2898 146.889 15.1597 146.469 15.1597C146.021 15.1597 145.644 15.2898 145.369 15.5791C145.094 15.8539 144.979 16.2155 144.979 16.6495V30.477C144.979 30.8965 145.109 31.2581 145.369 31.5474C145.659 31.8077 146.035 31.9379 146.469 31.9379C146.889 31.9379 147.251 31.8077 147.512 31.5474C147.801 31.2581 147.931 30.8965 147.931 30.477V21.7842C147.931 21.0176 148.134 20.3522 148.539 19.7881C148.945 19.1951 149.495 18.7178 150.204 18.3851C150.913 18.0235 151.724 17.85 152.621 17.85C153.576 17.85 154.416 18.038 155.154 18.4141C155.878 18.7612 156.457 19.3108 156.862 20.034C157.282 20.7428 157.514 21.6685 157.514 22.84V30.3902C157.514 30.7952 157.658 31.1568 157.933 31.4317C158.223 31.7209 158.585 31.8511 159.005 31.8511C159.41 31.8511 159.772 31.7065 160.047 31.4317C160.322 31.1568 160.466 30.7952 160.466 30.3902V22.8545C160.466 21.1911 160.134 19.7737 159.468 18.6166ZM146.469 15.4923C146.079 15.4923 145.76 15.6081 145.529 15.8395C145.76 15.6081 146.064 15.4923 146.469 15.4923ZM145.514 31.287C145.746 31.504 146.064 31.6052 146.455 31.6052C146.064 31.6052 145.76 31.504 145.514 31.287Z" fill="#484D72"/>
<g id="Group_6">
<path id="Vector_6" d="M138.248 12.1656C138.624 12.5417 139.087 12.7297 139.609 12.7297C140.13 12.7297 140.593 12.5417 140.969 12.1656C141.346 11.7751 141.534 11.3123 141.534 10.7771C141.534 10.2275 141.331 9.76461 140.94 9.41747C140.564 9.07033 140.13 8.89677 139.623 8.89677C139.116 8.89677 138.668 9.07033 138.277 9.41747C137.901 9.77907 137.712 10.2419 137.712 10.7771C137.683 11.3123 137.872 11.7751 138.248 12.1656Z" fill="#484D72"/>
<path id="Vector_7" d="M139.623 15.1452C139.203 15.1452 138.827 15.2754 138.552 15.5647C138.263 15.8395 138.132 16.2011 138.132 16.6495V30.4481C138.132 30.8965 138.263 31.2725 138.552 31.5474C138.842 31.8077 139.203 31.9379 139.623 31.9379C140.043 31.9379 140.405 31.8077 140.665 31.5474C140.955 31.2581 141.085 30.882 141.085 30.4481V16.6495C141.085 16.2155 140.955 15.8395 140.665 15.5791C140.405 15.2898 140.057 15.1452 139.623 15.1452Z" fill="#484D72"/>
</g>
<g id="Group_7">
<path id="Vector_8" d="M164.042 12.1656C164.418 12.5417 164.881 12.7297 165.403 12.7297C165.924 12.7297 166.387 12.5417 166.763 12.1656C167.139 11.7751 167.328 11.3123 167.328 10.7771C167.328 10.2275 167.125 9.76461 166.734 9.41747C166.358 9.07033 165.924 8.89677 165.417 8.89677C164.91 8.89677 164.462 9.07033 164.071 9.41747C163.694 9.77907 163.506 10.2419 163.506 10.7771C163.477 11.3123 163.666 11.7751 164.042 12.1656Z" fill="#484D72"/>
<path id="Vector_9" d="M165.388 15.1452C164.968 15.1452 164.592 15.2754 164.317 15.5647C164.027 15.8395 163.897 16.2011 163.897 16.6495V30.4481C163.897 30.8965 164.027 31.2725 164.317 31.5474C164.606 31.8077 164.968 31.9379 165.388 31.9379C165.808 31.9379 166.17 31.8077 166.43 31.5474C166.72 31.2581 166.85 30.882 166.85 30.4481V16.6495C166.85 16.2155 166.72 15.8395 166.43 15.5791C166.17 15.2898 165.808 15.1452 165.388 15.1452Z" fill="#484D72"/>
</g>
<path id="Vector_10" d="M127.652 27.4974C127.421 27.2516 127.131 27.1069 126.798 27.0491C126.451 27.0057 126.118 27.1214 125.814 27.3528C124.96 27.9892 124.077 28.481 123.151 28.8281C122.224 29.1753 121.255 29.3488 120.227 29.3488C119.011 29.3488 117.867 29.103 116.796 28.6256C115.74 28.1483 114.799 27.483 113.988 26.6296C113.178 25.7762 112.541 24.7927 112.078 23.679C111.629 22.5652 111.412 21.3503 111.412 20.063C111.412 18.8046 111.629 17.6185 112.078 16.5048C112.541 15.3911 113.178 14.4075 113.988 13.5542C114.799 12.7008 115.74 12.0355 116.796 11.5581C117.867 11.0519 119.011 10.806 120.227 10.806C121.428 10.806 122.456 10.9651 123.295 11.2978C124.135 11.6015 124.917 12.0788 125.655 12.7297C125.944 12.9467 126.234 13.0624 126.552 13.0624C126.842 13.0624 127.102 12.9901 127.319 12.8454C127.537 12.6863 127.696 12.4838 127.754 12.2379C127.855 12.1078 127.927 11.9631 127.971 11.7896C128.043 11.5871 128.043 11.399 127.971 11.1965C127.913 10.9651 127.783 10.7771 127.58 10.618C126.48 9.69229 125.351 9.04141 124.178 8.63642C123.006 8.21696 121.689 8 120.227 8C118.577 8 117.042 8.31821 115.609 8.96909C114.205 9.59104 112.975 10.4589 111.904 11.5581C110.833 12.6429 110.008 13.9158 109.4 15.3766C108.821 16.823 108.531 18.3707 108.531 20.034C108.531 21.7119 108.821 23.2884 109.4 24.7493C110.008 26.1957 110.833 27.4685 111.904 28.5678C112.989 29.667 114.234 30.5349 115.638 31.1568C117.071 31.7788 118.591 32.097 120.212 32.097C121.573 32.097 122.876 31.8945 124.121 31.4895C125.394 31.0701 126.552 30.4047 127.594 29.4935L127.609 29.479L127.623 29.4645C127.754 29.291 127.841 29.1319 127.913 28.9728C127.985 28.7992 128.014 28.6256 128.014 28.4231C128.043 28.076 127.913 27.7433 127.652 27.4974Z" fill="#484D72"/>
<path id="Vector_11" d="M101.294 21.0176C100.556 20.1353 99.6293 19.5133 98.5147 19.1373C99.2529 18.6889 99.8609 18.1248 100.339 17.4161C100.932 16.5771 101.236 15.6081 101.236 14.5233C101.236 13.3227 100.946 12.2813 100.353 11.3701C99.7596 10.4589 98.9635 9.73568 97.9502 9.20051C96.9515 8.66534 95.8224 8.40499 94.5776 8.40499H87.4271C87.0073 8.40499 86.6455 8.53517 86.3705 8.82445C86.0954 9.09926 85.9507 9.46086 85.9507 9.88032V9.89478V30.3613V30.3758C85.9507 30.7952 86.0954 31.1568 86.3994 31.4461C86.7178 31.7209 87.0797 31.8511 87.514 31.8511H95.0987C96.5462 31.8511 97.8344 31.5474 98.949 30.9399C100.078 30.3324 100.961 29.5079 101.598 28.4521C102.249 27.3962 102.568 26.1668 102.568 24.7782C102.553 23.274 102.148 22.0156 101.294 21.0176ZM88.889 28.9294V20.7283H95.0408C95.9382 20.7283 96.7199 20.8874 97.3857 21.2056C98.0805 21.5238 98.6161 21.9722 98.9924 22.5652C99.3832 23.1583 99.5714 23.8525 99.5714 24.677C99.5714 25.5882 99.3687 26.3403 98.9924 26.9623C98.6016 27.5698 98.066 28.0615 97.3712 28.4087C96.7054 28.7414 95.9238 28.9149 95.0263 28.9149H88.889V28.9294ZM88.889 11.1676H94.621C95.7645 11.1676 96.6764 11.4569 97.3857 12.021C98.0805 12.5706 98.4424 13.3806 98.4424 14.5088C98.4424 15.6514 98.0805 16.5048 97.3857 17.0978C96.6764 17.6909 95.7645 18.0091 94.621 18.0091H88.889V11.1676Z" fill="#484D72"/>
<path id="Vector_12" d="M69.5944 42.5689C69.5365 42.5111 69.4641 42.4677 69.3773 42.4532C69.3049 42.4387 69.2181 42.4677 69.1457 42.5255C68.8707 42.728 68.5956 42.8871 68.2917 43.0028C67.9877 43.1185 67.6693 43.1619 67.3363 43.1619C66.9455 43.1619 66.5692 43.0896 66.2218 42.9305C65.8744 42.7714 65.5704 42.5545 65.3099 42.2796C65.0493 42.0048 64.8467 41.6866 64.6875 41.325C64.5427 40.9634 64.4703 40.5729 64.4703 40.1679C64.4703 39.7629 64.5427 39.3868 64.6875 39.0252C64.8467 38.6636 65.0493 38.3454 65.3099 38.0706C65.5704 37.7958 65.8744 37.5788 66.2218 37.4197C66.5692 37.2606 66.9455 37.1883 67.3363 37.1883C67.7127 37.1883 68.0311 37.2462 68.3206 37.3474C68.5956 37.4487 68.8562 37.5933 69.1023 37.8103C69.1602 37.8537 69.2181 37.8826 69.2904 37.8971C69.3628 37.8971 69.4207 37.8971 69.4641 37.8681C69.5075 37.8392 69.5365 37.8103 69.551 37.7524C69.5944 37.7235 69.6378 37.6946 69.6668 37.6367C69.6957 37.5788 69.6957 37.521 69.6812 37.4776C69.6812 37.4197 69.6378 37.3619 69.5944 37.3185C69.2615 37.0437 68.9141 36.8267 68.5522 36.711C68.1903 36.5953 67.7851 36.523 67.3508 36.523C66.8442 36.523 66.381 36.6242 65.9468 36.8123C65.5125 37.0003 65.1362 37.2606 64.8177 37.5933C64.4993 37.926 64.2388 38.3165 64.0506 38.7649C63.8769 39.1988 63.79 39.6761 63.79 40.1679C63.79 40.6741 63.8769 41.1514 64.0651 41.5998C64.2532 42.0337 64.4993 42.4243 64.8322 42.7714C65.1651 43.1041 65.5415 43.3644 65.9612 43.5525C66.3955 43.7405 66.8587 43.8417 67.3508 43.8417C67.7706 43.8417 68.1614 43.7839 68.5522 43.6682C68.943 43.5525 69.2904 43.3355 69.5944 43.0607C69.6378 43.0173 69.6523 42.9739 69.6668 42.945C69.6812 42.9016 69.6957 42.8582 69.6957 42.8148C69.6812 42.6991 69.6523 42.6268 69.5944 42.5689Z" fill="#484D72"/>
<path id="Vector_13" d="M74.6173 39.8931C74.4291 39.517 74.1541 39.2277 73.8067 39.0252C73.4593 38.8083 73.0685 38.707 72.5908 38.707C72.1276 38.707 71.7078 38.8227 71.346 39.0397C70.9841 39.2567 70.6946 39.5604 70.492 39.9509C70.2893 40.327 70.188 40.7754 70.188 41.2672C70.188 41.7589 70.2893 42.2073 70.5064 42.5834C70.7236 42.9739 71.0275 43.2632 71.4039 43.4946C71.7947 43.7116 72.2289 43.8128 72.7211 43.8128C73.0106 43.8128 73.3001 43.755 73.6185 43.6537C73.9369 43.538 74.183 43.3934 74.3857 43.2198C74.458 43.1619 74.487 43.0896 74.487 43.0028C74.487 42.9161 74.4436 42.8437 74.3712 42.7714C74.3133 42.728 74.2409 42.6991 74.1541 42.7136C74.0672 42.7136 73.9948 42.7425 73.9225 42.8003C73.7922 42.9161 73.604 43.0173 73.3869 43.0896C73.1698 43.1619 72.9527 43.2053 72.7211 43.2053C72.3592 43.2053 72.0263 43.1186 71.7513 42.9594C71.4762 42.8003 71.2446 42.5689 71.0854 42.2796C70.9551 42.0482 70.8828 41.7879 70.8538 41.4986H74.5449C74.733 41.4986 74.7186 41.4986 74.7765 41.4407C74.8344 41.3829 74.8633 41.2961 74.8633 41.2093C74.9067 40.6886 74.8054 40.2691 74.6173 39.8931ZM71.6789 39.5749C71.9394 39.4158 72.2434 39.329 72.5908 39.329C72.9382 39.329 73.2277 39.4013 73.4737 39.5604C73.7198 39.7195 73.9225 39.9365 74.0527 40.2258C74.1396 40.3993 74.183 40.5729 74.212 40.7754H70.8972C70.9262 40.5874 70.9841 40.4282 71.0565 40.2691C71.2157 39.9799 71.4183 39.7484 71.6789 39.5749Z" fill="#484D72"/>
<path id="Vector_14" d="M81.2756 38.8661C81.2177 38.7938 81.1308 38.7649 81.015 38.7649C80.8558 38.7649 80.7255 38.8372 80.6387 38.9819L78.6412 41.8747L76.6437 38.9819C76.5423 38.8372 76.4265 38.7649 76.2673 38.7649C76.1515 38.7649 76.0647 38.7938 76.0068 38.8661C75.9489 38.924 75.9199 39.0108 75.9199 39.1265V43.4078C75.9199 43.5091 75.9489 43.5959 76.0068 43.6682C76.0791 43.726 76.1515 43.755 76.2673 43.755C76.3686 43.755 76.4555 43.726 76.5134 43.6682C76.5713 43.6103 76.6002 43.5235 76.6002 43.4078V40.0088L78.3082 42.4532C78.3951 42.5978 78.5109 42.6557 78.6412 42.6557C78.7714 42.6557 78.8872 42.5834 78.9741 42.4532L80.6966 39.9654V43.3934C80.6966 43.4946 80.7255 43.5814 80.7834 43.6537C80.8413 43.7116 80.9282 43.7405 81.0295 43.7405C81.1308 43.7405 81.2177 43.7116 81.2756 43.6537C81.3335 43.5959 81.3769 43.5091 81.3769 43.3934V39.112C81.3769 39.0108 81.3335 38.924 81.2756 38.8661Z" fill="#484D72"/>
<path id="Vector_15" d="M86.9639 39.8931C86.7758 39.517 86.5007 39.2277 86.1533 39.0252C85.806 38.8083 85.4151 38.707 84.9375 38.707C84.4743 38.707 84.0545 38.8227 83.6926 39.0397C83.3308 39.2567 83.0413 39.5604 82.8386 39.9509C82.636 40.327 82.5347 40.7754 82.5347 41.2672C82.5347 41.7589 82.636 42.2073 82.8531 42.5834C83.0702 42.9739 83.3742 43.2632 83.7505 43.4946C84.1414 43.7116 84.5756 43.8128 85.0677 43.8128C85.3572 43.8128 85.6467 43.755 85.9652 43.6537C86.2836 43.538 86.5297 43.3934 86.7323 43.2198C86.8047 43.1619 86.8337 43.0896 86.8337 43.0028C86.8337 42.9161 86.7902 42.8437 86.7179 42.7714C86.66 42.728 86.5876 42.6991 86.5007 42.7136C86.4139 42.7136 86.3415 42.7425 86.2691 42.8003C86.1389 42.9161 85.9507 43.0173 85.7336 43.0896C85.5165 43.1619 85.2993 43.2053 85.0677 43.2053C84.7059 43.2053 84.373 43.1186 84.0979 42.9594C83.8229 42.8003 83.5913 42.5689 83.4321 42.2796C83.3018 42.0482 83.2295 41.7879 83.2005 41.4986H86.8916C87.0363 41.4986 87.0653 41.4986 87.1232 41.4407C87.1811 41.3829 87.21 41.2961 87.21 41.2093C87.2534 40.6886 87.1521 40.2691 86.9639 39.8931ZM83.2584 40.7754C83.2874 40.5874 83.3452 40.4282 83.4176 40.2691C83.5624 39.9799 83.765 39.7484 84.0256 39.5893C84.2861 39.4302 84.5901 39.3435 84.9375 39.3435C85.2849 39.3435 85.5744 39.4158 85.8204 39.5749C86.0665 39.734 86.2691 39.9509 86.3994 40.2402C86.4863 40.4138 86.5297 40.5874 86.5586 40.7898H83.2584V40.7754Z" fill="#484D72"/>
<g id="Group_8">
<path id="Vector_16" d="M89.6855 37.9549C89.9171 38.0562 90.1921 38.0995 90.4961 38.0995C90.8001 38.0995 91.0606 38.0562 91.3067 37.9549C91.5383 37.8537 91.7264 37.709 91.8712 37.5355C92.0159 37.3619 92.0883 37.1594 92.0883 36.9424C92.0883 36.8412 92.0594 36.7689 92.0015 36.6965C91.9436 36.6242 91.8567 36.5953 91.7699 36.5953C91.683 36.5953 91.5962 36.6242 91.5383 36.6965C91.4804 36.7689 91.4514 36.8556 91.4514 36.9714C91.4514 37.1449 91.3646 37.2751 91.1909 37.3763C91.0172 37.4776 90.8001 37.5355 90.5395 37.5355C90.279 37.5355 90.0619 37.4776 89.8882 37.3763C89.7145 37.2751 89.6276 37.1305 89.6276 36.9714C89.6276 36.8556 89.5987 36.7689 89.5408 36.6965C89.4829 36.6242 89.396 36.5953 89.3092 36.5953C89.2223 36.5953 89.1355 36.6242 89.0776 36.6965C89.0197 36.7689 88.9907 36.8412 88.9907 36.9424C88.9907 37.1594 89.0631 37.3619 89.1934 37.5355C89.2657 37.709 89.4539 37.8537 89.6855 37.9549Z" fill="#484D72"/>
<path id="Vector_17" d="M92.6672 38.924C92.6093 38.8517 92.5224 38.8227 92.4211 38.8227C92.3198 38.8227 92.2329 38.8517 92.175 38.924C92.1171 38.9818 92.0882 39.0686 92.0882 39.1699V41.918C92.0882 42.1784 91.9579 42.4098 91.8277 42.5978C91.6974 42.8003 91.5092 42.9594 91.2631 43.0752C91.0315 43.1909 90.771 43.2487 90.4815 43.2487C90.1775 43.2487 89.9025 43.1909 89.6709 43.0607C89.4393 42.945 89.2512 42.7569 89.1064 42.5111C88.9761 42.2652 88.9038 41.9614 88.9038 41.5709V39.1843C88.9038 39.0831 88.8748 39.0108 88.8024 38.9385C88.7301 38.8661 88.6577 38.8372 88.5564 38.8372C88.455 38.8372 88.3827 38.8661 88.3103 38.9385C88.2379 39.0108 88.209 39.0831 88.209 39.1843V41.5709C88.209 42.0771 88.3103 42.4966 88.4985 42.8437C88.6866 43.1909 88.9617 43.4512 89.2946 43.6392C89.6275 43.8128 90.0038 43.8996 90.4236 43.8996C90.8144 43.8996 91.1618 43.8128 91.4658 43.6392C91.7119 43.4946 91.929 43.321 92.0882 43.1041V43.3066C92.0882 43.4078 92.1171 43.4946 92.175 43.5669C92.2474 43.6248 92.3198 43.6537 92.4211 43.6537C92.5224 43.6537 92.6093 43.6248 92.6672 43.5669C92.7396 43.5091 92.7685 43.4223 92.7685 43.3066V39.141C92.7685 39.0686 92.7396 38.9818 92.6672 38.924Z" fill="#484D72"/>
</g>
<path id="Vector_18" d="M98.6018 38.8951C98.5439 38.8227 98.457 38.7938 98.3557 38.7938C98.2544 38.7938 98.1675 38.8227 98.1096 38.8951C98.0372 38.9529 98.0083 39.0397 98.0083 39.1409V40.7754H94.8239V39.1409C94.8239 39.0397 94.7949 38.9529 94.7225 38.8951C94.6646 38.8227 94.5778 38.7938 94.4765 38.7938C94.3751 38.7938 94.2883 38.8227 94.2304 38.8951C94.1725 38.9529 94.1436 39.0397 94.1436 39.1409V43.3644C94.1436 43.4657 94.1725 43.5525 94.2304 43.6248C94.3028 43.6826 94.3751 43.7116 94.4765 43.7116C94.5778 43.7116 94.6646 43.6826 94.7225 43.6248C94.7949 43.5525 94.8239 43.4657 94.8239 43.3644V41.4697H98.0083V43.3644C98.0083 43.4657 98.0372 43.5525 98.1096 43.6248C98.182 43.6826 98.2544 43.7116 98.3557 43.7116C98.457 43.7116 98.5439 43.6826 98.6018 43.6248C98.6597 43.5525 98.6886 43.4657 98.6886 43.3644V39.1409C98.6886 39.0397 98.6597 38.9529 98.6018 38.8951Z" fill="#484D72"/>
<path id="Vector_19" d="M104.71 39.9509C104.493 39.5604 104.189 39.2711 103.798 39.0397C103.422 38.8083 102.988 38.707 102.51 38.707C102.032 38.707 101.598 38.8227 101.207 39.0397C100.816 39.2567 100.512 39.5604 100.295 39.9509C100.078 40.3415 99.9624 40.7754 99.9624 41.2527C99.9624 41.73 100.064 42.1639 100.281 42.5545C100.498 42.945 100.802 43.2487 101.164 43.4657C101.54 43.6826 101.96 43.7984 102.423 43.7984C102.872 43.7984 103.263 43.6971 103.61 43.4946C103.928 43.3066 104.189 43.0607 104.377 42.7569V43.3644C104.377 43.4657 104.406 43.5525 104.479 43.6103C104.536 43.6682 104.623 43.6971 104.725 43.6971C104.826 43.6971 104.913 43.6682 104.971 43.6103C105.029 43.5525 105.072 43.4657 105.072 43.3644V41.4552V41.2961V41.2238C105.072 40.7465 104.927 40.327 104.71 39.9509ZM104.102 42.2362C103.943 42.5255 103.726 42.7425 103.436 42.9161C103.161 43.0752 102.843 43.1619 102.495 43.1619C102.148 43.1619 101.83 43.0752 101.555 42.9161C101.28 42.7569 101.048 42.5255 100.889 42.2362C100.73 41.947 100.643 41.6143 100.643 41.2527C100.643 40.8911 100.73 40.5584 100.889 40.2691C101.048 39.9799 101.28 39.7629 101.555 39.5893C101.83 39.4158 102.148 39.329 102.495 39.329C102.843 39.329 103.161 39.4158 103.436 39.5893C103.711 39.7484 103.943 39.9799 104.102 40.2691C104.261 40.5584 104.348 40.8766 104.348 41.2527C104.363 41.6143 104.276 41.947 104.102 42.2362Z" fill="#484D72"/>
<path id="Vector_20" d="M109.762 38.8227C109.704 38.7504 109.617 38.7215 109.516 38.7215H107.981C107.663 38.7215 107.373 38.7938 107.113 38.924C106.867 39.0542 106.664 39.2567 106.519 39.4881C106.389 39.7195 106.317 39.9943 106.317 40.3125C106.317 40.6163 106.375 40.8766 106.505 41.0936C106.635 41.325 106.809 41.4986 107.04 41.6288C107.098 41.6577 107.171 41.6866 107.229 41.7155L106.056 43.2053C105.998 43.2776 105.969 43.35 105.969 43.4368C105.969 43.5091 106.013 43.5959 106.085 43.6537C106.143 43.7116 106.23 43.7405 106.331 43.7405C106.447 43.7405 106.534 43.6971 106.606 43.6103L107.996 41.9036H109.183V43.3644C109.183 43.4801 109.212 43.5669 109.269 43.6248C109.342 43.6826 109.414 43.7116 109.516 43.7116C109.617 43.7116 109.704 43.6826 109.762 43.6248C109.834 43.5525 109.863 43.4657 109.863 43.3644V39.0686C109.863 38.9818 109.834 38.8951 109.762 38.8227ZM109.183 41.4552H107.88C107.561 41.4552 107.301 41.3684 107.084 41.1804C106.867 40.9923 106.765 40.732 106.765 40.4138C106.765 40.11 106.867 39.8642 107.084 39.6906C107.301 39.5026 107.561 39.4158 107.88 39.4158H109.183V41.4552Z" fill="#484D72"/>
<path id="Vector_21" d="M115.972 43.7984C115.494 43.7984 115.06 43.6826 114.683 43.4657C114.307 43.2343 114.017 42.9305 113.8 42.5545C113.583 42.1639 113.482 41.73 113.482 41.2527C113.482 40.7609 113.583 40.327 113.8 39.9509C114.003 39.5604 114.293 39.2711 114.654 39.0397C115.016 38.8083 115.436 38.707 115.899 38.707C116.276 38.707 116.608 38.7794 116.927 38.924C117.245 39.0686 117.52 39.2856 117.766 39.5893C117.839 39.6617 117.853 39.7484 117.839 39.8208C117.824 39.8931 117.766 39.9654 117.68 40.0377C117.607 40.0811 117.535 40.11 117.448 40.0956C117.376 40.0811 117.303 40.0377 117.231 39.9654C116.883 39.5604 116.435 39.3579 115.899 39.3579C115.552 39.3579 115.248 39.4447 114.987 39.6038C114.727 39.7629 114.524 39.9943 114.379 40.2836C114.235 40.5729 114.162 40.9056 114.162 41.2672C114.162 41.6288 114.235 41.9614 114.394 42.2507C114.553 42.54 114.756 42.7569 115.031 42.9305C115.306 43.0896 115.624 43.1764 115.972 43.1764C116.203 43.1764 116.42 43.1475 116.623 43.0896C116.826 43.0173 116.999 42.9161 117.159 42.7859C117.231 42.728 117.303 42.6846 117.39 42.6846C117.462 42.6846 117.549 42.6991 117.607 42.7569C117.68 42.8293 117.723 42.9016 117.723 42.9884C117.737 43.0752 117.709 43.1475 117.636 43.2053C117.187 43.5959 116.637 43.7984 115.972 43.7984Z" fill="#484D72"/>
<path id="Vector_22" d="M125.814 39.705C125.67 39.3868 125.452 39.1554 125.177 38.9818C124.917 38.8083 124.598 38.7215 124.251 38.7215C123.889 38.7215 123.556 38.8083 123.267 38.9818C122.977 39.1554 122.746 39.3868 122.586 39.705C122.442 39.4158 122.239 39.1988 121.993 39.0397C121.732 38.8661 121.414 38.7793 121.067 38.7793C120.719 38.7793 120.415 38.8661 120.14 39.0397C119.952 39.1554 119.793 39.3145 119.663 39.4881V39.1699C119.663 39.0686 119.634 38.9818 119.561 38.924C119.503 38.8517 119.416 38.8227 119.315 38.8227C119.214 38.8227 119.127 38.8517 119.055 38.924C118.997 38.9963 118.968 39.0686 118.968 39.1699V43.3355C118.968 43.4368 118.997 43.5235 119.055 43.5814C119.127 43.6392 119.199 43.6682 119.315 43.6682C119.416 43.6682 119.489 43.6392 119.561 43.5814C119.634 43.5235 119.663 43.4368 119.663 43.3355V40.7754C119.663 40.3849 119.851 40.0522 120.097 39.8208C120.328 39.5749 120.632 39.4447 121.009 39.4447C121.356 39.4447 121.631 39.5749 121.848 39.8352C122.065 40.0811 122.181 40.4282 122.181 40.8622V43.4946C122.181 43.5959 122.21 43.6826 122.282 43.755C122.355 43.8128 122.427 43.8417 122.529 43.8417C122.63 43.8417 122.702 43.8128 122.775 43.755C122.847 43.6826 122.876 43.5959 122.876 43.4946V40.8622C122.876 40.8332 122.876 40.8188 122.876 40.7898C122.876 40.3704 123.079 40.0377 123.31 39.7774C123.542 39.517 123.846 39.3868 124.222 39.3868C124.569 39.3868 124.845 39.517 125.062 39.7774C125.279 40.0233 125.395 40.3704 125.395 40.8043V43.4368C125.395 43.538 125.423 43.6248 125.496 43.6971C125.554 43.755 125.641 43.7839 125.742 43.7839C125.843 43.7839 125.916 43.755 125.988 43.6971C126.06 43.6248 126.089 43.538 126.089 43.4368V40.8043C126.046 40.3704 125.974 40.0088 125.814 39.705Z" fill="#484D72"/>
<path id="Vector_23" d="M129.679 43.7984C129.187 43.7984 128.753 43.6826 128.376 43.4657C127.985 43.2487 127.696 42.945 127.464 42.5544C127.247 42.1639 127.131 41.73 127.131 41.2527C127.131 40.7609 127.247 40.3125 127.464 39.9365C127.681 39.5459 127.985 39.2567 128.376 39.0252C128.767 38.8083 129.201 38.6926 129.679 38.6926C130.157 38.6926 130.605 38.8083 130.982 39.0252C131.372 39.2422 131.662 39.5459 131.894 39.9365C132.111 40.327 132.226 40.7609 132.226 41.2527C132.226 41.7445 132.111 42.1784 131.894 42.5544C131.676 42.945 131.372 43.2343 130.982 43.4657C130.605 43.6971 130.171 43.7984 129.679 43.7984ZM129.679 43.1619C130.026 43.1619 130.345 43.0752 130.634 42.916C130.909 42.7569 131.141 42.5255 131.3 42.2362C131.459 41.947 131.532 41.6288 131.532 41.2527C131.532 40.8911 131.459 40.5584 131.3 40.2691C131.141 39.9799 130.924 39.7484 130.634 39.5893C130.359 39.4302 130.041 39.3434 129.679 39.3434C129.317 39.3434 129.013 39.4302 128.724 39.5893C128.449 39.7484 128.217 39.9799 128.058 40.2691C127.899 40.5584 127.826 40.8766 127.826 41.2527C127.826 41.6143 127.899 41.947 128.058 42.2362C128.217 42.5255 128.449 42.7425 128.724 42.916C129.013 43.0752 129.332 43.1619 129.679 43.1619Z" fill="#484D72"/>
<path id="Vector_24" d="M138.711 38.8661C138.653 38.7938 138.566 38.7649 138.451 38.7649C138.291 38.7649 138.161 38.8372 138.074 38.9819L136.077 41.8747L134.079 38.9819C133.978 38.8372 133.862 38.7649 133.703 38.7649C133.587 38.7649 133.5 38.7938 133.442 38.8661C133.384 38.924 133.355 39.0108 133.355 39.1265V43.4078C133.355 43.5091 133.384 43.5959 133.442 43.6682C133.515 43.726 133.587 43.755 133.703 43.755C133.804 43.755 133.891 43.726 133.949 43.6682C134.007 43.6103 134.036 43.5235 134.036 43.4078V40.0088L135.744 42.4532C135.831 42.5978 135.946 42.6557 136.077 42.6557C136.207 42.6557 136.323 42.5834 136.41 42.4532L138.132 39.9654V43.3934C138.132 43.4946 138.161 43.5814 138.219 43.6537C138.277 43.7116 138.364 43.7405 138.465 43.7405C138.566 43.7405 138.653 43.7116 138.711 43.6537C138.783 43.5959 138.812 43.5091 138.812 43.3934V39.112C138.812 39.0108 138.783 38.924 138.711 38.8661Z" fill="#484D72"/>
<path id="Vector_25" d="M144.805 39.9509C144.588 39.5604 144.284 39.2711 143.893 39.0397C143.517 38.8083 143.082 38.707 142.605 38.707C142.127 38.707 141.693 38.8227 141.302 39.0397C140.911 39.2567 140.607 39.5604 140.39 39.9509C140.173 40.3415 140.057 40.7754 140.057 41.2527C140.057 41.73 140.158 42.1639 140.376 42.5545C140.593 42.945 140.897 43.2487 141.259 43.4657C141.635 43.6826 142.055 43.7984 142.518 43.7984C142.967 43.7984 143.357 43.6971 143.705 43.4946C144.038 43.3066 144.298 43.0462 144.501 42.728V43.3644C144.501 43.4657 144.53 43.5525 144.602 43.6103C144.66 43.6682 144.747 43.6971 144.848 43.6971C144.95 43.6971 145.036 43.6682 145.094 43.6103C145.152 43.5525 145.196 43.4657 145.196 43.3644V41.4552C145.196 40.9779 145.022 40.327 144.805 39.9509ZM144.197 42.2362C144.038 42.5255 143.821 42.7425 143.531 42.9161C143.256 43.0752 142.938 43.1619 142.59 43.1619C142.243 43.1619 141.924 43.0752 141.649 42.9161C141.374 42.7569 141.143 42.5255 140.984 42.2362C140.824 41.947 140.737 41.6143 140.737 41.2527C140.737 40.8911 140.824 40.5584 140.984 40.2691C141.143 39.9799 141.374 39.7629 141.649 39.5893C141.924 39.4158 142.243 39.329 142.59 39.329C142.938 39.329 143.256 39.4158 143.531 39.5893C143.806 39.7484 144.038 39.9799 144.197 40.2691C144.356 40.5584 144.443 40.8766 144.443 41.2527C144.457 41.6143 144.371 41.947 144.197 42.2362Z" fill="#484D72"/>
<path id="Vector_26" d="M153.171 39.705C153.026 39.3868 152.809 39.1554 152.534 38.9818C152.274 38.8083 151.955 38.7215 151.608 38.7215C151.246 38.7215 150.913 38.8083 150.624 38.9818C150.334 39.1554 150.103 39.3868 149.943 39.705C149.799 39.4158 149.596 39.1988 149.35 39.0397C149.089 38.8661 148.771 38.7793 148.424 38.7793C148.076 38.7793 147.772 38.8661 147.497 39.0397C147.309 39.1554 147.15 39.3145 147.019 39.4881V39.1699C147.019 39.0686 146.991 38.9818 146.918 38.924C146.86 38.8517 146.773 38.8227 146.672 38.8227C146.571 38.8227 146.484 38.8517 146.412 38.924C146.354 38.9963 146.325 39.0686 146.325 39.1699V43.3355C146.325 43.4368 146.354 43.5235 146.412 43.5814C146.484 43.6392 146.556 43.6682 146.672 43.6682C146.773 43.6682 146.846 43.6392 146.918 43.5814C146.991 43.5235 147.019 43.4368 147.019 43.3355V40.7754C147.019 40.3849 147.208 40.0522 147.454 39.8208C147.685 39.5749 147.989 39.4447 148.366 39.4447C148.713 39.4447 148.988 39.5749 149.205 39.8352C149.422 40.0811 149.538 40.4282 149.538 40.8622V43.4946C149.538 43.5959 149.567 43.6826 149.639 43.755C149.712 43.8128 149.784 43.8417 149.885 43.8417C149.987 43.8417 150.059 43.8128 150.132 43.755C150.204 43.6826 150.233 43.5959 150.233 43.4946V40.8622C150.233 40.8332 150.233 40.8188 150.233 40.7898C150.233 40.3704 150.436 40.0377 150.667 39.7774C150.899 39.517 151.203 39.3868 151.579 39.3868C151.926 39.3868 152.201 39.517 152.419 39.7774C152.636 40.0233 152.751 40.3704 152.751 40.8043V43.4368C152.751 43.538 152.78 43.6248 152.853 43.6971C152.925 43.755 152.998 43.7839 153.099 43.7839C153.2 43.7839 153.273 43.755 153.345 43.6971C153.417 43.6248 153.446 43.538 153.446 43.4368V40.8043C153.403 40.3704 153.33 40.0088 153.171 39.705Z" fill="#484D72"/>
<path id="Vector_27" d="M157.022 43.7984C156.53 43.7984 156.095 43.6826 155.719 43.4657C155.328 43.2487 155.039 42.945 154.807 42.5544C154.59 42.1639 154.474 41.73 154.474 41.2527C154.474 40.7609 154.59 40.3125 154.807 39.9365C155.024 39.5459 155.328 39.2567 155.719 39.0252C156.11 38.8083 156.544 38.6926 157.022 38.6926C157.514 38.6926 157.948 38.8083 158.324 39.0252C158.715 39.2422 159.005 39.5459 159.236 39.9365C159.453 40.327 159.569 40.7609 159.569 41.2527C159.569 41.7445 159.453 42.1784 159.236 42.5544C159.019 42.945 158.715 43.2343 158.324 43.4657C157.934 43.6971 157.499 43.7984 157.022 43.7984ZM157.022 43.1619C157.369 43.1619 157.688 43.0752 157.977 42.916C158.252 42.7569 158.484 42.5255 158.643 42.2362C158.802 41.947 158.874 41.6288 158.874 41.2527C158.874 40.8911 158.802 40.5584 158.643 40.2691C158.484 39.9799 158.267 39.7484 157.977 39.5893C157.702 39.4302 157.384 39.3434 157.022 39.3434C156.674 39.3434 156.356 39.4302 156.066 39.5893C155.791 39.7484 155.56 39.9799 155.401 40.2691C155.241 40.5584 155.169 40.8766 155.169 41.2527C155.169 41.6143 155.241 41.947 155.401 42.2362C155.56 42.5255 155.791 42.7425 156.066 42.916C156.341 43.0752 156.66 43.1619 157.022 43.1619Z" fill="#484D72"/>
<path id="Vector_28" d="M164.91 43.3644L162.927 39.0397C162.884 38.9529 162.84 38.8951 162.782 38.8517C162.724 38.8083 162.652 38.7938 162.58 38.7938C162.435 38.7938 162.319 38.8661 162.247 39.0252L160.235 43.3355C160.191 43.4223 160.191 43.5091 160.22 43.5814C160.264 43.6537 160.322 43.7116 160.409 43.755C160.495 43.7984 160.582 43.8128 160.669 43.7839C160.756 43.755 160.828 43.6971 160.872 43.5959L162.594 39.8352L164.288 43.5959C164.331 43.6826 164.404 43.755 164.476 43.7839C164.548 43.8128 164.65 43.7984 164.736 43.755C164.823 43.7116 164.881 43.6537 164.91 43.5814C164.954 43.538 164.954 43.4512 164.91 43.3644Z" fill="#484D72"/>
<path id="Vector_29" d="M168.138 43.7984C167.646 43.7984 167.212 43.6826 166.836 43.4657C166.445 43.2487 166.155 42.945 165.924 42.5544C165.707 42.1639 165.591 41.73 165.591 41.2527C165.591 40.7609 165.707 40.3125 165.924 39.9365C166.141 39.5459 166.445 39.2567 166.836 39.0252C167.226 38.8083 167.661 38.6926 168.138 38.6926C168.631 38.6926 169.065 38.8083 169.441 39.0252C169.832 39.2422 170.121 39.5459 170.353 39.9365C170.57 40.327 170.686 40.7609 170.686 41.2527C170.686 41.7445 170.57 42.1784 170.353 42.5544C170.136 42.945 169.832 43.2343 169.441 43.4657C169.065 43.6971 168.631 43.7984 168.138 43.7984ZM168.138 43.1619C168.486 43.1619 168.804 43.0752 169.094 42.916C169.369 42.7569 169.6 42.5255 169.76 42.2362C169.919 41.947 169.991 41.6288 169.991 41.2527C169.991 40.8911 169.919 40.5584 169.76 40.2691C169.6 39.9799 169.383 39.7484 169.094 39.5893C168.819 39.4302 168.5 39.3434 168.138 39.3434C167.776 39.3434 167.473 39.4302 167.183 39.5893C166.908 39.7484 166.676 39.9799 166.517 40.2691C166.358 40.5584 166.286 40.8766 166.286 41.2527C166.286 41.6143 166.358 41.947 166.517 42.2362C166.676 42.5255 166.908 42.7425 167.183 42.916C167.473 43.0752 167.791 43.1619 168.138 43.1619Z" fill="#484D72"/>
<path id="Vector_30" d="M173.363 43.7984C173.002 43.7984 172.683 43.7405 172.394 43.6393C172.104 43.5235 171.873 43.3789 171.713 43.1764C171.554 42.9739 171.467 42.7425 171.467 42.4677C171.467 42.2362 171.525 42.0193 171.655 41.8313C171.786 41.6432 171.988 41.4841 172.263 41.3395C172.538 41.1948 172.915 41.0647 173.363 40.9779C173.769 40.8911 174.058 40.7754 174.203 40.6307C174.362 40.4861 174.435 40.2981 174.435 40.0811C174.435 39.8642 174.348 39.6906 174.16 39.5604C173.971 39.4158 173.725 39.3435 173.392 39.3435C173.132 39.3435 172.9 39.3868 172.683 39.4881C172.466 39.5749 172.292 39.705 172.148 39.8642C172.075 39.9365 172.003 39.9799 171.916 39.9943C171.829 40.0088 171.757 40.0088 171.699 39.9654C171.598 39.9075 171.54 39.8352 171.525 39.7484C171.511 39.6617 171.525 39.5749 171.583 39.5026C171.757 39.2711 172.003 39.0686 172.307 38.924C172.611 38.7794 172.973 38.707 173.378 38.707C173.711 38.707 174.015 38.7649 174.275 38.8661C174.536 38.9674 174.739 39.1265 174.883 39.329C175.028 39.5315 175.1 39.7918 175.1 40.0956C175.1 40.4138 174.985 40.7031 174.739 40.949C174.492 41.1948 174.087 41.3829 173.523 41.513C173.002 41.6288 172.64 41.7589 172.452 41.9036C172.249 42.0482 172.162 42.2362 172.162 42.4532C172.162 42.6846 172.263 42.8727 172.452 42.9884C172.654 43.1041 172.944 43.1619 173.349 43.1619C173.653 43.1619 173.928 43.1185 174.16 43.0462C174.406 42.9739 174.608 42.8437 174.768 42.6557C174.825 42.5834 174.898 42.54 174.985 42.5255C175.071 42.4966 175.158 42.5255 175.245 42.5834C175.318 42.6557 175.361 42.728 175.375 42.8148C175.375 42.9016 175.347 42.9739 175.289 43.0462C175.086 43.2777 174.796 43.4512 174.449 43.5814C174.073 43.7405 173.725 43.7984 173.363 43.7984Z" fill="#484D72"/>
<path id="Vector_31" d="M185.899 38.8227C185.841 38.7504 185.754 38.7215 185.653 38.7215H184.118C183.8 38.7215 183.51 38.7938 183.25 38.924C183.004 39.0542 182.801 39.2567 182.656 39.4881C182.526 39.7195 182.454 39.9943 182.454 40.3125C182.454 40.6163 182.512 40.8766 182.642 41.0936C182.772 41.325 182.946 41.4986 183.177 41.6288C183.235 41.6577 183.293 41.6866 183.351 41.7155L182.179 43.2053C182.121 43.2776 182.092 43.35 182.092 43.4368C182.092 43.5091 182.135 43.5959 182.208 43.6537C182.266 43.7116 182.352 43.7405 182.454 43.7405C182.569 43.7405 182.656 43.6971 182.729 43.6103L184.118 41.9036H185.334V43.3644C185.334 43.4801 185.363 43.5669 185.421 43.6248C185.493 43.6826 185.566 43.7116 185.667 43.7116C185.768 43.7116 185.855 43.6826 185.913 43.6248C185.985 43.5525 186.014 43.4657 186.014 43.3644V39.0686C186 38.9818 185.971 38.8951 185.899 38.8227ZM185.32 41.4552H184.017C183.698 41.4552 183.438 41.3684 183.221 41.1804C183.004 40.9923 182.902 40.732 182.902 40.4138C182.902 40.11 183.004 39.8642 183.221 39.6906C183.438 39.5026 183.698 39.4158 184.017 39.4158H185.32V41.4552Z" fill="#484D72"/>
<path id="Vector_32" d="M136.424 29.3778C136.178 29.0885 135.86 28.9438 135.469 28.9438H134.702C134.253 28.9438 133.877 28.7269 133.573 28.2496C133.269 27.7433 133.109 27.0925 133.109 26.2825V10.2419C133.109 10.1841 133.109 10.1262 133.095 10.0539C133.095 10.0539 133.095 9.20051 132.661 8.62195C132.661 8.60749 132.646 8.60749 132.646 8.59302C132.617 8.54963 132.574 8.50624 132.53 8.46285L132.516 8.44838L132.502 8.43392C132.473 8.40499 132.458 8.39053 132.429 8.3616C132.227 8.17357 131.966 8.07232 131.648 8.07232C131.633 8.07232 131.633 8.07232 131.619 8.07232C131.604 8.07232 131.604 8.07232 131.59 8.07232C130.055 8.07232 130.157 9.77907 130.157 9.77907V26.2535C130.157 27.3383 130.345 28.3074 130.721 29.1463C131.098 29.9852 131.633 30.6651 132.313 31.1568C133.008 31.6341 133.804 31.8656 134.702 31.8656H134.977C135.483 31.8656 135.903 31.7499 136.236 31.4895C136.598 31.2002 136.772 30.8242 136.772 30.3758C136.786 29.9997 136.67 29.6381 136.424 29.3778Z" fill="#484D72"/>
<path id="Vector_33" d="M180.89 38.924C180.832 38.8517 180.746 38.8227 180.644 38.8227C180.543 38.8227 180.456 38.8517 180.398 38.924C180.34 38.9818 180.311 39.0686 180.311 39.1699V41.918C180.311 42.1784 180.181 42.4098 180.051 42.5978C179.921 42.8003 179.732 42.9594 179.486 43.0752C179.255 43.1909 178.994 43.2487 178.705 43.2487C178.401 43.2487 178.126 43.1909 177.894 43.0607C177.662 42.945 177.474 42.7569 177.33 42.5111C177.199 42.2652 177.127 41.9614 177.127 41.5709V39.1843C177.127 39.0831 177.098 39.0108 177.026 38.9385C176.953 38.8661 176.881 38.8372 176.78 38.8372C176.678 38.8372 176.606 38.8661 176.533 38.9385C176.461 39.0108 176.432 39.0831 176.432 39.1843V41.5709C176.432 42.0771 176.533 42.4966 176.722 42.8437C176.91 43.1909 177.185 43.4512 177.518 43.6392C177.851 43.8128 178.227 43.8996 178.647 43.8996C179.038 43.8996 179.385 43.8128 179.689 43.6392C179.935 43.4946 180.152 43.321 180.311 43.1041V43.3066C180.311 43.4078 180.34 43.4946 180.398 43.5669C180.471 43.6248 180.543 43.6537 180.644 43.6537C180.746 43.6537 180.832 43.6248 180.89 43.5669C180.963 43.5091 180.992 43.4223 180.992 43.3066V39.1409C180.977 39.0686 180.948 38.9818 180.89 38.924Z" fill="#484D72"/>
</g>
</g>
</g>
<defs>
<clipPath id="clip0_85_770">
<rect width="186" height="51" fill="white"/>
</clipPath>
</defs>
</svg>
