<svg width="123" height="119" viewBox="0 0 123 119" fill="none" xmlns="http://www.w3.org/2000/svg">
<path fill-rule="evenodd" clip-rule="evenodd" d="M37.6865 30.5094C45.4188 25.6832 51.3693 24.1982 56.244 24.772C61.1188 25.3457 65.4219 28.0119 69.7251 32.4331C78.1298 41.0391 82.0296 46.4053 84.3493 50.4552C83.9458 50.7589 83.3407 51.1302 82.4666 51.5352C80.4831 52.5139 77.7936 53.4926 75.2722 54.3701C74.5662 54.0664 73.7258 53.6951 72.9189 53.3914C72.2465 53.1214 71.4733 52.8176 70.8346 52.5814C72.0448 49.7802 72.5155 46.709 72.1121 43.5703C71.4397 40.4654 68.7838 33.9518 63.6402 32.4668C63.5393 32.4331 63.4048 32.4668 63.304 32.5343C56.8492 36.753 51.6047 36.753 47.9402 35.3693C47.7721 35.3018 47.6377 35.2343 47.4696 35.2005C46.3602 34.728 45.4188 34.1543 44.6456 33.513C44.5111 33.4118 44.3767 33.2768 44.2422 33.1756C43.8051 32.8043 43.1328 33.1418 43.2336 33.7155C43.2672 33.918 43.3009 34.0868 43.3009 34.2893C43.4353 35.3018 43.469 36.4492 43.4017 37.5967C43.4017 37.7992 43.3681 37.968 43.3681 38.1704C42.9647 43.1991 40.6114 48.9702 33.4842 51.9064C33.3161 51.9739 33.2153 52.1427 33.2489 52.3452C34.7617 62.2337 42.8638 66.2499 54.0925 64.7311C60.1438 63.8874 65.2539 60.85 68.5149 56.6313C68.683 56.6988 68.8511 56.7663 69.0191 56.8001C69.0191 56.8001 69.0864 56.8338 69.2209 56.8676C69.3553 56.9013 69.5234 56.9688 69.7588 57.0701C70.1958 57.2388 70.7001 57.4413 71.2716 57.6775C72.3474 58.1163 73.524 58.6225 74.2973 58.96C75.0705 59.365 76.2472 60.3437 77.7264 62.1662C79.2056 63.9549 80.8193 66.3849 82.5339 69.3885C85.9293 75.3959 89.4257 83.5632 92.2496 93.2155C94.6366 101.417 96.6201 106.58 97.9984 109.955C98.2338 110.495 98.4355 111.001 98.6036 111.44L98.6708 111.575C98.5363 111.541 98.4019 111.508 98.2674 111.474C95.6451 110.799 91.9471 109.921 87.7784 109.314C81.7606 108.436 74.4654 108.065 67.7753 109.854C68.3804 108.706 68.9519 107.525 69.5234 106.31C72.0448 100.809 74.1964 94.633 75.4067 90.5156C75.8101 89.1994 76.2472 86.8369 76.5161 84.4745C76.7514 82.4158 76.9195 80.0196 76.6506 78.2309C76.6842 77.6571 76.5161 77.0496 76.0791 76.5434C75.3058 75.6997 74.0283 75.5984 73.0534 76.2396C65.859 81.0658 60.1438 83.9007 56.3785 84.9807C54.4286 85.5207 53.3528 85.5207 52.8822 85.3857C52.9158 85.3182 52.9494 85.217 53.0839 85.0482C53.3192 84.677 53.7226 84.2045 54.3278 83.597C55.5044 82.4158 57.219 81.032 59.2361 79.5808C62.2618 77.3871 65.7245 75.1259 68.7502 73.1685C69.557 72.6285 70.3639 72.1222 71.1035 71.6497C71.4733 71.5485 71.8431 71.346 72.1457 71.0423C72.9525 70.266 73.0198 68.9835 72.381 68.0723C71.0026 66.1149 69.12 65.1699 66.9348 64.7311C64.8504 64.2924 62.2282 64.2924 59.2361 64.2924C57.0173 64.2924 54.4286 64.7986 52.109 65.5411C50.3944 66.0811 48.6798 66.8236 47.2679 67.6673C47.0998 67.5661 46.9317 67.4311 46.73 67.3298C46.5955 67.2623 46.461 67.1611 46.2929 67.0936C43.4017 65.3724 39.7373 63.2124 33.0135 63.5837C31.9714 63.6512 30.9292 63.7524 29.9542 63.9887C30.0215 62.9424 30.0215 61.8624 30.0215 60.8837C29.9879 58.555 29.887 56.4288 29.8534 55.7876C29.8534 55.6188 29.8198 55.4501 29.8198 55.2476C29.6517 52.9189 29.3491 48.4302 30.1896 43.6716C30.8956 38.4404 33.0472 33.4118 37.6865 30.5094ZM25.0795 65.8111C25.2812 64.6299 25.3485 62.7737 25.3149 60.85C25.2812 58.6563 25.1804 56.6313 25.1468 55.9901C25.1468 55.8213 25.1132 55.6526 25.1132 55.4501C24.9451 53.1214 24.6089 48.1265 25.5166 42.8279C26.4915 37.0905 29.0465 30.5431 35.266 26.6282C43.469 21.4983 50.4616 19.5071 56.7819 20.2496C63.1023 20.9921 68.2795 24.4345 72.9861 29.2606C82.0632 38.5754 86.2319 44.4141 88.7533 49.004C89.224 49.8477 89.2912 50.7927 88.9886 51.6702C88.7197 52.4464 88.249 53.0539 87.812 53.4589C86.9379 54.3026 85.694 55.0451 84.4837 55.6188C83.0718 56.2938 81.4244 56.9688 79.7771 57.5763C80.2478 58.0488 80.7184 58.5888 81.1555 59.1625C82.8364 61.2212 84.6182 63.8874 86.4 67.0598C89.9636 73.4047 93.628 81.9095 96.5192 91.8656C98.8389 99.8642 100.789 104.927 102.1 108.133C102.302 108.605 102.47 109.044 102.638 109.483C103.041 110.461 103.377 111.271 103.613 111.946C103.781 112.419 103.949 112.925 104.05 113.398C104.151 113.87 104.218 114.478 104.05 115.119C103.814 116.131 103.008 116.57 102.638 116.739C102.268 116.874 101.965 116.908 101.831 116.908C101.562 116.908 101.293 116.874 101.159 116.874C100.856 116.84 100.486 116.739 100.116 116.638C99.713 116.536 99.2087 116.401 98.6372 116.266C98.1329 116.131 97.595 115.996 97.0235 115.861C94.4685 115.22 90.9385 114.376 86.9715 113.803C79.0039 112.655 69.826 112.588 63.0686 116.536C62.1946 117.448 61.2196 118.224 60.2111 118.696C58.2612 119.607 56.5466 118.19 56.1432 116.739C55.0674 112.655 53.2856 106.985 51.3021 102.632C50.2935 100.404 49.3186 98.6829 48.4445 97.6367C48.0747 97.198 47.8058 96.9617 47.6377 96.8605C47.2342 97.0967 46.5619 97.7379 45.6878 99.0204C44.7128 100.438 43.7379 102.26 42.763 104.353C40.8467 108.538 39.1658 113.364 38.1236 116.773C37.6529 118.258 35.8375 119.54 33.9549 118.561C31.4671 117.279 27.8026 113.701 24.9787 106.58C23.0624 101.72 21.0453 96.253 19.7005 91.0218C18.3894 85.892 17.6498 80.6946 18.5239 76.5096C19.398 72.291 21.0453 69.0511 23.6003 66.8236C24.1046 66.5199 24.5753 66.1486 25.0795 65.8111ZM47.7385 40.0942C46.9989 45.1566 44.5448 50.7927 38.4934 54.4714C39.3339 56.5301 40.645 57.9138 42.2587 58.825C44.7128 60.2087 48.4445 60.8837 53.4537 60.175C62.7325 58.8925 68.4812 51.4339 67.6408 44.3803C67.3718 43.2666 66.7331 41.4779 65.7245 39.8579C65.0858 38.8454 64.4134 38.1029 63.7746 37.563C59.3033 40.0604 55.101 40.9379 51.3357 40.7016C50.0246 40.6341 48.8479 40.4317 47.7385 40.0942ZM33.1144 68.0723C38.4598 67.7686 41.1829 69.3885 43.8724 70.9748C44.0069 71.0423 44.1413 71.1435 44.3094 71.211C44.7465 71.481 45.1163 71.751 45.5533 72.1222C46.2593 72.7297 47.2679 72.7972 48.0411 72.426C48.2764 72.3585 48.4781 72.2235 48.6798 72.0885C49.6212 71.346 51.3357 70.5023 53.3528 69.861C55.37 69.2198 57.4879 68.8148 59.1016 68.8148C62.2282 68.8148 64.3461 68.8486 65.8926 69.1523C66.0271 69.186 66.1616 69.2198 66.2624 69.2198C63.2031 71.211 59.5723 73.5397 56.4458 75.8347C54.395 77.3534 52.4451 78.8721 51.0332 80.2896C50.3272 80.9983 49.6548 81.7408 49.1841 82.4833C48.7135 83.192 48.2428 84.137 48.2428 85.2507C48.2428 86.2294 48.4781 87.2082 49.1169 88.0856C49.7556 88.9631 50.6297 89.4694 51.5374 89.7394C53.252 90.2456 55.37 89.9756 57.5216 89.3344C61.2532 88.2882 66.1952 85.8919 72.0448 82.247C72.0112 82.787 71.944 83.327 71.8767 83.9345C71.6078 86.1619 71.2044 88.2206 70.9354 89.1656C69.7588 93.148 67.708 99.1217 65.2875 104.353C64.0772 106.985 62.7997 109.381 61.5558 111.238C60.9843 112.081 60.4464 112.756 59.9757 113.263C58.8663 109.348 57.2862 104.623 55.5381 100.742C54.4959 98.4129 53.2856 96.2192 52.0081 94.7005C51.3693 93.9243 50.5625 93.2155 49.6548 92.743C48.6462 92.2706 47.436 92.0681 46.2257 92.5743C44.5111 93.2493 43.1328 94.8693 42.0233 96.4892C40.8467 98.1767 39.7373 100.303 38.7287 102.497C37.0814 106.074 35.6022 110.124 34.5264 113.364C33.0472 111.98 31.0637 109.381 29.2819 104.96C27.4328 100.303 25.5838 95.2067 24.3063 90.4144C27.769 91.2243 31.3662 91.5618 34.3583 91.4606C36.3754 91.3931 38.3253 91.0893 39.8381 90.4818C41.2501 89.9081 43.1328 88.5581 42.8974 86.1282C42.7966 84.9132 42.0233 84.0695 41.4518 83.5632C40.8467 83.0233 40.0735 82.5845 39.3002 82.2133C37.7538 81.437 35.703 80.7283 33.5851 80.1208C30.1223 79.1083 26.1553 78.2646 22.9952 77.6909C22.9952 77.6571 22.9952 77.6234 23.0288 77.5896C23.802 73.9784 25.0795 71.751 26.626 70.401C28.2061 68.9836 30.2904 68.2411 33.1144 68.0723ZM22.7935 82.2808C22.8607 83.2595 22.9952 84.3057 23.1633 85.4195C26.8277 86.5332 30.9292 87.0057 34.123 86.9044C35.6022 86.8369 36.7452 86.6682 37.5184 86.4319C37.4176 86.3982 37.3167 86.3307 37.2159 86.2969C36.0056 85.6895 34.2911 85.082 32.2403 84.5082C29.2483 83.597 25.7519 82.8208 22.7935 82.2808ZM38.4598 86.0269C38.4934 85.9932 38.4934 85.9932 38.4934 85.9932C38.527 85.9932 38.4934 85.9932 38.4598 86.0269Z" fill="#484D72"/>
<path d="M111.782 114.41C110.572 114.41 109.597 113.431 109.597 112.216C109.597 111.001 110.572 110.023 111.782 110.023C115.278 110.023 118.136 107.154 118.136 103.644V14.6809C118.136 9.01106 113.53 4.38741 107.882 4.38741H14.6241C8.97619 4.38741 4.37043 9.01106 4.37043 14.6809V102.429C4.37043 106.614 7.76591 110.023 11.9346 110.023C13.1449 110.023 14.1198 111.001 14.1198 112.216C14.1198 113.431 13.1449 114.41 11.9346 114.41C5.34537 114.41 0 109.01 0 102.395V14.6472C0 6.58111 6.55564 0 14.6241 0H107.882C115.951 0 122.506 6.58111 122.506 14.6809V103.644C122.506 109.584 117.699 114.41 111.782 114.41Z" fill="#484D72"/>
</svg>
