<svg width="22" height="21" viewBox="0 0 22 21" fill="none" xmlns="http://www.w3.org/2000/svg">
<path d="M20.7953 18.7041L16.3431 14.25C17.678 12.5104 18.3013 10.3282 18.0864 8.14607C17.8715 5.9639 16.8347 3.94516 15.1861 2.49937C13.5376 1.05357 11.4008 0.288988 9.20923 0.360713C7.01768 0.432437 4.93546 1.3351 3.38497 2.88559C1.83448 4.43608 0.931819 6.5183 0.860095 8.70985C0.78837 10.9014 1.55295 13.0382 2.99875 14.6867C4.44454 16.3353 6.46328 17.3722 8.64545 17.587C10.8276 17.8019 13.0098 17.1787 14.7494 15.8438L19.2053 20.3006C19.31 20.4053 19.4342 20.4883 19.5709 20.5449C19.7077 20.6016 19.8542 20.6307 20.0022 20.6307C20.1502 20.6307 20.2967 20.6016 20.4335 20.5449C20.5702 20.4883 20.6944 20.4053 20.7991 20.3006C20.9037 20.196 20.9867 20.0717 21.0434 19.935C21.1 19.7983 21.1291 19.6517 21.1291 19.5037C21.1291 19.3558 21.1 19.2092 21.0434 19.0725C20.9867 18.9358 20.9037 18.8115 20.7991 18.7069L20.7953 18.7041ZM3.12438 9C3.12438 7.73915 3.49827 6.5066 4.19876 5.45824C4.89926 4.40988 5.8949 3.59278 7.05978 3.11027C8.22466 2.62776 9.50646 2.50151 10.7431 2.7475C11.9797 2.99348 13.1156 3.60064 14.0072 4.4922C14.8987 5.38376 15.5059 6.51967 15.7519 7.7563C15.9979 8.99293 15.8716 10.2747 15.3891 11.4396C14.9066 12.6045 14.0895 13.6001 13.0411 14.3006C11.9928 15.0011 10.7602 15.375 9.49938 15.375C7.80916 15.3733 6.18866 14.7011 4.9935 13.5059C3.79833 12.3107 3.12612 10.6902 3.12438 9Z" fill="#484D72"/>
</svg>
