<svg width="24" height="24" viewBox="0 0 24 24" fill="none" xmlns="http://www.w3.org/2000/svg">
<path d="M21.7953 20.2041L17.3431 15.75C18.678 14.0104 19.3013 11.8282 19.0864 9.64607C18.8715 7.4639 17.8347 5.44516 16.1861 3.99937C14.5376 2.55357 12.4008 1.78899 10.2092 1.86071C8.01768 1.93244 5.93546 2.8351 4.38497 4.38559C2.83448 5.93608 1.93182 8.0183 1.86009 10.2098C1.78837 12.4014 2.55295 14.5382 3.99875 16.1867C5.44454 17.8353 7.46328 18.8722 9.64545 19.087C11.8276 19.3019 14.0098 18.6787 15.7494 17.3438L20.2053 21.8006C20.31 21.9053 20.4342 21.9883 20.5709 22.0449C20.7077 22.1016 20.8542 22.1307 21.0022 22.1307C21.1502 22.1307 21.2967 22.1016 21.4335 22.0449C21.5702 21.9883 21.6944 21.9053 21.7991 21.8006C21.9037 21.696 21.9867 21.5717 22.0434 21.435C22.1 21.2983 22.1291 21.1517 22.1291 21.0037C22.1291 20.8558 22.1 20.7092 22.0434 20.5725C21.9867 20.4358 21.9037 20.3115 21.7991 20.2069L21.7953 20.2041ZM4.12438 10.5C4.12438 9.23915 4.49827 8.0066 5.19876 6.95824C5.89926 5.90988 6.8949 5.09278 8.05978 4.61027C9.22466 4.12776 10.5065 4.00151 11.7431 4.2475C12.9797 4.49348 14.1156 5.10064 15.0072 5.9922C15.8987 6.88376 16.5059 8.01967 16.7519 9.2563C16.9979 10.4929 16.8716 11.7747 16.3891 12.9396C15.9066 14.1045 15.0895 15.1001 14.0411 15.8006C12.9928 16.5011 11.7602 16.875 10.4994 16.875C8.80916 16.8733 7.18866 16.2011 5.9935 15.0059C4.79833 13.8107 4.12612 12.1902 4.12438 10.5Z" fill="#484D72" fill-opacity="0.7"/>
</svg>
