<svg width="186" height="51" viewBox="0 0 186 51" fill="none" xmlns="http://www.w3.org/2000/svg">
<g clip-path="url(#clip0_85_381)">
<path fill-rule="evenodd" clip-rule="evenodd" d="M16.2263 13.0752C19.5555 11.0069 22.1175 10.3704 24.2164 10.6163C26.3152 10.8622 28.1679 12.0049 30.0207 13.8997C33.6394 17.588 35.3185 19.8877 36.3172 21.6234C36.1435 21.7536 35.883 21.9127 35.5066 22.0863C34.6526 22.5057 33.4946 22.9252 32.409 23.3012C32.1051 23.1711 31.7432 23.012 31.3958 22.8818C31.1063 22.7661 30.7734 22.6359 30.4984 22.5347C31.0195 21.3341 31.2221 20.0179 31.0484 18.6728C30.7589 17.3421 29.6154 14.5505 27.4008 13.9141C27.3574 13.8997 27.2995 13.9141 27.256 13.9431C24.4769 15.751 22.2188 15.751 20.6411 15.158C20.5687 15.1291 20.5108 15.1002 20.4385 15.0857C19.9608 14.8832 19.5555 14.6373 19.2226 14.3625C19.1647 14.3191 19.1068 14.2613 19.0489 14.2179C18.8607 14.0588 18.5712 14.2034 18.6146 14.4493C18.6291 14.5361 18.6436 14.6084 18.6436 14.6952C18.7015 15.1291 18.716 15.6209 18.687 16.1126C18.687 16.1994 18.6725 16.2718 18.6725 16.3585C18.4988 18.5137 17.4856 20.987 14.417 22.2454C14.3446 22.2743 14.3012 22.3466 14.3157 22.4334C14.967 26.6714 18.4554 28.3926 23.29 27.7417C25.8954 27.3801 28.0956 26.0783 29.4996 24.2703C29.572 24.2993 29.6444 24.3282 29.7167 24.3427C29.7167 24.3427 29.7457 24.3571 29.8036 24.3716C29.8615 24.386 29.9339 24.415 30.0352 24.4584C30.2234 24.5307 30.4405 24.6175 30.6865 24.7187C31.1497 24.9067 31.6564 25.1237 31.9893 25.2683C32.3222 25.4419 32.8288 25.8614 33.4657 26.6424C34.1026 27.409 34.7974 28.4504 35.5356 29.7377C36.9975 32.3123 38.5029 35.8126 39.7188 39.9493C40.7465 43.464 41.6005 45.677 42.1939 47.1234C42.2953 47.3548 42.3821 47.5718 42.4545 47.7598L42.4834 47.8177C42.4255 47.8032 42.3676 47.7888 42.3097 47.7743C41.1807 47.485 39.5885 47.109 37.7936 46.8486C35.2027 46.4725 32.0616 46.3134 29.1812 47.08C29.4417 46.5883 29.6878 46.082 29.9339 45.5613C31.0195 43.2037 31.9458 40.5568 32.4669 38.7922C32.6406 38.2281 32.8288 37.2156 32.9446 36.2031C33.0459 35.3208 33.1183 34.2939 33.0025 33.5273C33.017 33.2814 32.9446 33.021 32.7564 32.8041C32.4235 32.4425 31.8735 32.3991 31.4537 32.6739C28.3561 34.7423 25.8954 35.9572 24.2743 36.4201C23.4347 36.6515 22.9715 36.6515 22.7689 36.5936C22.7834 36.5647 22.7978 36.5213 22.8557 36.449C22.9571 36.2899 23.1308 36.0874 23.3913 35.8271C23.8979 35.3208 24.6361 34.7278 25.5046 34.1058C26.8073 33.1657 28.2982 32.1966 29.6009 31.3577C29.9483 31.1263 30.2957 30.9093 30.6142 30.7068C30.7734 30.6634 30.9326 30.5766 31.0629 30.4465C31.4103 30.1138 31.4392 29.5642 31.1642 29.1736C30.5707 28.3347 29.7602 27.9297 28.8193 27.7417C27.9219 27.5537 26.7929 27.5537 25.5046 27.5537C24.5493 27.5537 23.4347 27.7706 22.436 28.0888C21.6978 28.3202 20.9595 28.6385 20.3516 29.0001C20.2792 28.9567 20.2069 28.8988 20.12 28.8554C20.0621 28.8265 20.0042 28.7831 19.9318 28.7542C18.687 28.0165 17.1093 27.0908 14.2143 27.2499C13.7656 27.2788 13.3169 27.3222 12.8971 27.4235C12.9261 26.9751 12.9261 26.5123 12.9261 26.0928C12.9116 25.0948 12.8682 24.1836 12.8537 23.9087C12.8537 23.8364 12.8392 23.7641 12.8392 23.6773C12.7669 22.6793 12.6366 20.7556 12.9985 18.7162C13.3024 16.4742 14.2288 14.3191 16.2263 13.0752ZM10.7983 28.2045C10.8851 27.6983 10.9141 26.9028 10.8996 26.0783C10.8851 25.1382 10.8417 24.2703 10.8272 23.9955C10.8272 23.9232 10.8128 23.8509 10.8128 23.7641C10.7404 22.7661 10.5957 20.6254 10.9865 18.3546C11.4062 15.8957 12.5063 13.0897 15.1841 11.4119C18.716 9.21333 21.7267 8.35995 24.4479 8.67816C27.1692 8.99637 29.3983 10.4717 31.4248 12.54C35.3329 16.5321 37.1278 19.0344 38.2134 21.0015C38.416 21.3631 38.445 21.7681 38.3147 22.1441C38.1989 22.4768 37.9963 22.7372 37.8081 22.9107C37.4318 23.2723 36.8962 23.5905 36.3751 23.8364C35.7672 24.1257 35.0579 24.415 34.3486 24.6753C34.5513 24.8778 34.7539 25.1092 34.9421 25.3551C35.6658 26.2374 36.433 27.3801 37.2002 28.7397C38.7345 31.4589 40.3122 35.1039 41.5571 39.3707C42.5558 42.7987 43.3953 44.9683 43.9599 46.3424C44.0467 46.5449 44.1191 46.7329 44.1914 46.9209C44.3651 47.3404 44.5099 47.6875 44.6112 47.9768C44.6836 48.1793 44.756 48.3963 44.7994 48.5988C44.8428 48.8012 44.8718 49.0616 44.7994 49.3364C44.6981 49.7703 44.3507 49.9584 44.1914 50.0307C44.0322 50.0885 43.902 50.103 43.8441 50.103C43.7283 50.103 43.6125 50.0885 43.5546 50.0885C43.4243 50.0741 43.2651 50.0307 43.1058 49.9873C42.9321 49.9439 42.715 49.886 42.469 49.8282C42.2518 49.7703 42.0202 49.7125 41.7742 49.6546C40.6741 49.3798 39.1543 49.0182 37.4462 48.7723C34.0157 48.2805 30.0641 48.2516 27.1547 49.9439C26.7784 50.3344 26.3586 50.6671 25.9244 50.8696C25.0848 51.2601 24.3466 50.6526 24.1729 50.0307C23.7097 48.2805 22.9426 45.8506 22.0886 43.9847C21.6543 43.0301 21.2346 42.2925 20.8582 41.8441C20.699 41.656 20.5832 41.5548 20.5108 41.5114C20.3371 41.6126 20.0476 41.8875 19.6713 42.4371C19.2515 43.0446 18.8318 43.8256 18.412 44.7224C17.5869 46.5159 16.8632 48.5843 16.4145 50.0452C16.2118 50.6816 15.4302 51.2312 14.6196 50.8117C13.5485 50.2621 11.9708 48.7289 10.7549 45.677C9.92982 43.5942 9.06133 41.2511 8.48235 39.0091C7.91783 36.8106 7.59939 34.5832 7.97573 32.7896C8.35207 30.9816 9.06133 29.5931 10.1614 28.6385C10.3785 28.5083 10.5812 28.3492 10.7983 28.2045ZM20.5543 17.183C20.2358 19.3526 19.1792 21.7681 16.5737 23.3446C16.9356 24.2269 17.5001 24.82 18.1949 25.2105C19.2515 25.8035 20.8582 26.0928 23.015 25.7891C27.01 25.2394 29.4851 22.0429 29.1233 19.0199C29.0075 18.5426 28.7325 17.776 28.2982 17.0817C28.0232 16.6478 27.7337 16.3296 27.4587 16.0982C25.5336 17.1685 23.7242 17.5446 22.103 17.4433C21.5385 17.4144 21.0319 17.3276 20.5543 17.183ZM14.2578 29.1736C16.5592 29.0434 17.7317 29.7377 18.8897 30.4175C18.9476 30.4465 19.0055 30.4898 19.0778 30.5188C19.266 30.6345 19.4252 30.7502 19.6134 30.9093C19.9174 31.1697 20.3516 31.1986 20.6845 31.0395C20.7858 31.0106 20.8727 30.9527 20.9595 30.8948C21.3648 30.5766 22.103 30.215 22.9715 29.9402C23.84 29.6654 24.7519 29.4918 25.4467 29.4918C26.7929 29.4918 27.7048 29.5063 28.3706 29.6365C28.4285 29.6509 28.4864 29.6654 28.5298 29.6654C27.2126 30.5188 25.6493 31.5168 24.3032 32.5003C23.4202 33.1512 22.5807 33.8021 21.9728 34.4096C21.6688 34.7133 21.3793 35.0315 21.1767 35.3497C20.974 35.6535 20.7714 36.0585 20.7714 36.5358C20.7714 36.9552 20.8727 37.3747 21.1477 37.7508C21.4227 38.1268 21.7991 38.3438 22.1899 38.4595C22.9281 38.6765 23.84 38.5608 24.7664 38.2859C26.3731 37.8376 28.5009 36.8106 31.0195 35.2485C31.005 35.4799 30.976 35.7113 30.9471 35.9717C30.8313 36.9263 30.6576 37.8086 30.5418 38.2136C30.0352 39.9204 29.1522 42.4805 28.11 44.7224C27.589 45.8506 27.0389 46.8775 26.5034 47.6731C26.2573 48.0347 26.0257 48.3239 25.823 48.5409C25.3454 46.8631 24.6651 44.8381 23.9124 43.1748C23.4637 42.1767 22.9426 41.2366 22.3925 40.5857C22.1175 40.253 21.7701 39.9493 21.3793 39.7468C20.9451 39.5443 20.424 39.4575 19.9029 39.6745C19.1647 39.9638 18.5712 40.658 18.0936 41.3523C17.5869 42.0755 17.1093 42.9867 16.675 43.9269C15.9658 45.4601 15.3289 47.1957 14.8657 48.5843C14.2288 47.9913 13.3748 46.8775 12.6076 44.9828C11.8115 42.9867 11.0154 40.8027 10.4654 38.7488C11.9563 39.0959 13.5051 39.2406 14.7933 39.1972C15.6618 39.1682 16.5013 39.0381 17.1527 38.7777C17.7606 38.5318 18.5712 37.9533 18.4699 36.9119C18.4265 36.3912 18.0936 36.0296 17.8475 35.8126C17.5869 35.5812 17.254 35.3931 16.9211 35.234C16.2553 34.9014 15.3723 34.5976 14.4604 34.3373C12.9695 33.9033 11.2615 33.5417 9.90087 33.2959C9.90087 33.2814 9.90087 33.2669 9.91534 33.2525C10.2483 31.7048 10.7983 30.7502 11.4641 30.1716C12.1444 29.5642 13.0419 29.2459 14.2578 29.1736ZM9.81402 35.263C9.84297 35.6824 9.90087 36.1308 9.97324 36.6081C11.551 37.0854 13.3169 37.2879 14.692 37.2445C15.3289 37.2156 15.821 37.1433 16.1539 37.042C16.1105 37.0276 16.0671 36.9986 16.0237 36.9842C15.5026 36.7238 14.7644 36.4635 13.8814 36.2176C12.5932 35.8271 11.0878 35.4944 9.81402 35.263ZM16.5592 36.8685C16.5737 36.854 16.5737 36.854 16.5737 36.854C16.5882 36.854 16.5737 36.854 16.5592 36.8685Z" fill="white"/>
<path d="M48.1284 49.0329C47.6073 49.0329 47.1876 48.6134 47.1876 48.0927C47.1876 47.572 47.6073 47.1526 48.1284 47.1526C49.6338 47.1526 50.8641 45.9231 50.8641 44.4189V6.29183C50.8641 3.86188 48.8811 1.88032 46.4493 1.88032H6.2965C3.86475 1.88032 1.88171 3.86188 1.88171 6.29183V43.8982C1.88171 45.6917 3.34366 47.1526 5.13852 47.1526C5.65961 47.1526 6.07938 47.572 6.07938 48.0927C6.07938 48.6134 5.65961 49.0329 5.13852 49.0329C2.30148 49.0329 0 46.7187 0 43.8837V6.27737C0 2.82048 2.82257 0 6.2965 0H46.4493C49.9233 0 52.7458 2.82048 52.7458 6.29183V44.4189C52.7458 46.9646 50.676 49.0329 48.1284 49.0329Z" fill="white"/>
<path d="M84.2135 29.7247L75.601 9.28708C75.4852 8.96887 75.3115 8.72298 75.0654 8.54941C74.8339 8.37585 74.5444 8.28906 74.2259 8.28906C73.9075 8.28906 73.618 8.37585 73.3719 8.53495C73.1258 8.70852 72.9377 8.95441 72.7929 9.25815L64.2094 29.6958C64.0068 30.1731 64.0357 30.6504 64.2818 31.1132C64.2963 31.1277 64.2963 31.1422 64.3107 31.1566C64.3252 31.1711 64.3252 31.2 64.3397 31.2145C64.5858 31.6195 64.9476 31.8075 65.4542 31.8075C65.5121 31.8075 65.57 31.8075 65.6279 31.793C65.874 31.7786 66.1056 31.7207 66.3372 31.5905C66.5977 31.4314 66.7714 31.2 66.8872 30.8963L68.74 26.4124H79.6395L81.4778 30.9107C81.6225 31.1855 81.8107 31.4025 82.0712 31.5616C82.2883 31.6918 82.5344 31.7641 82.7949 31.7786C82.8528 31.793 82.8963 31.793 82.9542 31.793C83.4318 31.8075 83.7792 31.605 84.0253 31.2289C84.0542 31.1711 84.0832 31.1277 84.1121 31.0698C84.4016 30.6504 84.4306 30.1875 84.2135 29.7247ZM69.8256 23.9246L74.2549 13.2357L78.6118 23.9246H69.8256Z" fill="white"/>
<path d="M173.364 20.555C173.798 19.6727 174.406 18.9929 175.187 18.5011C175.984 18.0093 176.895 17.7634 177.952 17.7634C179.53 17.7634 180.833 18.3564 181.889 19.528C182.15 19.8028 182.439 19.9909 182.772 20.0632H182.787H182.801C183.148 20.1066 183.467 20.0343 183.742 19.8462C184.06 19.6148 184.278 19.3255 184.35 18.9929C184.451 18.6168 184.335 18.2697 184.075 17.9515C183.293 17.0113 182.381 16.2881 181.339 15.8252C180.311 15.3335 179.182 15.1021 177.967 15.1021C176.389 15.1021 174.999 15.4781 173.769 16.2302C172.567 16.9534 171.627 17.9659 170.917 19.2387C170.223 20.5116 169.89 21.958 169.89 23.5635C169.89 25.1545 170.237 26.5865 170.946 27.8593C171.67 29.1321 172.669 30.1446 173.914 30.8967C175.173 31.6199 176.606 31.996 178.184 31.996C180.384 31.996 182.222 31.3162 183.713 29.9566C183.988 29.6817 184.118 29.3491 184.06 28.9875C184.017 28.6403 183.843 28.3221 183.554 28.0618H183.539H183.525C183.25 27.8593 182.946 27.758 182.613 27.787C182.28 27.8159 181.976 27.9461 181.672 28.192C181.223 28.5825 180.702 28.8862 180.123 29.0743C179.559 29.2623 178.907 29.3635 178.169 29.3635C177.098 29.3635 176.143 29.1177 175.318 28.6259C174.507 28.1196 173.856 27.4254 173.378 26.572C172.929 25.7041 172.698 24.7061 172.698 23.5924C172.712 22.4064 172.929 21.4083 173.364 20.555Z" fill="white"/>
<path d="M159.468 18.6166C158.816 17.4595 157.919 16.5917 156.79 15.9986C155.675 15.3911 154.402 15.0874 152.998 15.0874C151.68 15.0874 150.493 15.3767 149.408 15.9697C148.858 16.2734 148.38 16.6206 147.931 17.0256V16.6495C147.931 16.2156 147.801 15.8395 147.512 15.5792C147.251 15.2899 146.889 15.1597 146.469 15.1597C146.021 15.1597 145.644 15.2899 145.369 15.5792C145.094 15.854 144.979 16.2156 144.979 16.6495V30.4771C144.979 30.8965 145.109 31.2581 145.369 31.5474C145.659 31.8078 146.035 31.9379 146.469 31.9379C146.889 31.9379 147.251 31.8078 147.512 31.5474C147.801 31.2581 147.931 30.8965 147.931 30.4771V21.7842C147.931 21.0176 148.134 20.3523 148.539 19.7882C148.945 19.1952 149.495 18.7179 150.204 18.3852C150.913 18.0236 151.724 17.85 152.621 17.85C153.576 17.85 154.416 18.0381 155.154 18.4141C155.878 18.7613 156.457 19.3109 156.862 20.0341C157.282 20.7428 157.514 21.6685 157.514 22.8401V30.3903C157.514 30.7953 157.658 31.1569 157.933 31.4317C158.223 31.721 158.585 31.8512 159.005 31.8512C159.41 31.8512 159.772 31.7065 160.047 31.4317C160.322 31.1569 160.466 30.7953 160.466 30.3903V22.8546C160.466 21.1912 160.134 19.7737 159.468 18.6166ZM146.469 15.4924C146.079 15.4924 145.76 15.6081 145.529 15.8395C145.76 15.6081 146.064 15.4924 146.469 15.4924ZM145.514 31.2871C145.746 31.504 146.064 31.6053 146.455 31.6053C146.064 31.6053 145.76 31.504 145.514 31.2871Z" fill="white"/>
<path d="M138.247 12.1658C138.624 12.5419 139.087 12.7299 139.608 12.7299C140.129 12.7299 140.592 12.5419 140.969 12.1658C141.345 11.7753 141.533 11.3125 141.533 10.7773C141.533 10.2277 141.331 9.76481 140.94 9.41768C140.563 9.07054 140.129 8.89697 139.623 8.89697C139.116 8.89697 138.667 9.07054 138.276 9.41768C137.9 9.77928 137.712 10.2421 137.712 10.7773C137.683 11.3125 137.871 11.7753 138.247 12.1658Z" fill="white"/>
<path d="M139.623 15.1455C139.203 15.1455 138.827 15.2757 138.552 15.565C138.262 15.8398 138.132 16.2014 138.132 16.6498V30.4484C138.132 30.8968 138.262 31.2728 138.552 31.5477C138.841 31.808 139.203 31.9382 139.623 31.9382C140.042 31.9382 140.404 31.808 140.665 31.5477C140.954 31.2584 141.085 30.8823 141.085 30.4484V16.6498C141.085 16.2158 140.954 15.8398 140.665 15.5794C140.404 15.2901 140.057 15.1455 139.623 15.1455Z" fill="white"/>
<path d="M164.041 12.1658C164.418 12.5419 164.881 12.7299 165.402 12.7299C165.923 12.7299 166.386 12.5419 166.763 12.1658C167.139 11.7753 167.327 11.3125 167.327 10.7773C167.327 10.2277 167.125 9.76481 166.734 9.41768C166.357 9.07054 165.923 8.89697 165.417 8.89697C164.91 8.89697 164.461 9.07054 164.07 9.41768C163.694 9.77928 163.506 10.2421 163.506 10.7773C163.477 11.3125 163.665 11.7753 164.041 12.1658Z" fill="white"/>
<path d="M165.387 15.1455C164.968 15.1455 164.591 15.2757 164.316 15.565C164.027 15.8398 163.896 16.2014 163.896 16.6498V30.4484C163.896 30.8968 164.027 31.2728 164.316 31.5477C164.606 31.808 164.968 31.9382 165.387 31.9382C165.807 31.9382 166.169 31.808 166.43 31.5477C166.719 31.2584 166.849 30.8823 166.849 30.4484V16.6498C166.849 16.2158 166.719 15.8398 166.43 15.5794C166.169 15.2901 165.807 15.1455 165.387 15.1455Z" fill="white"/>
<path d="M127.652 27.4974C127.421 27.2516 127.131 27.1069 126.798 27.0491C126.451 27.0057 126.118 27.1214 125.814 27.3528C124.96 27.9892 124.077 28.481 123.151 28.8281C122.224 29.1753 121.255 29.3488 120.227 29.3488C119.011 29.3488 117.867 29.103 116.796 28.6256C115.74 28.1483 114.799 27.483 113.988 26.6296C113.178 25.7762 112.541 24.7927 112.078 23.679C111.629 22.5652 111.412 21.3503 111.412 20.063C111.412 18.8046 111.629 17.6185 112.078 16.5048C112.541 15.3911 113.178 14.4075 113.988 13.5542C114.799 12.7008 115.74 12.0355 116.796 11.5581C117.867 11.0519 119.011 10.806 120.227 10.806C121.428 10.806 122.456 10.9651 123.295 11.2978C124.135 11.6015 124.917 12.0788 125.655 12.7297C125.944 12.9467 126.234 13.0624 126.552 13.0624C126.842 13.0624 127.102 12.9901 127.319 12.8454C127.537 12.6863 127.696 12.4838 127.754 12.2379C127.855 12.1078 127.927 11.9631 127.971 11.7896C128.043 11.5871 128.043 11.399 127.971 11.1965C127.913 10.9651 127.783 10.7771 127.58 10.618C126.48 9.69229 125.351 9.04141 124.178 8.63642C123.006 8.21696 121.689 8 120.227 8C118.577 8 117.042 8.31821 115.609 8.96909C114.205 9.59104 112.975 10.4589 111.904 11.5581C110.833 12.6429 110.008 13.9158 109.4 15.3766C108.821 16.823 108.531 18.3707 108.531 20.034C108.531 21.7119 108.821 23.2884 109.4 24.7493C110.008 26.1957 110.833 27.4685 111.904 28.5678C112.989 29.667 114.234 30.5349 115.638 31.1568C117.071 31.7788 118.591 32.097 120.212 32.097C121.573 32.097 122.876 31.8945 124.121 31.4895C125.394 31.0701 126.552 30.4047 127.594 29.4935L127.609 29.479L127.623 29.4645C127.754 29.291 127.841 29.1319 127.913 28.9728C127.985 28.7992 128.014 28.6256 128.014 28.4231C128.043 28.076 127.913 27.7433 127.652 27.4974Z" fill="white"/>
<path d="M101.294 21.0174C100.556 20.1351 99.6298 19.5131 98.5152 19.1371C99.2534 18.6887 99.8614 18.1246 100.339 17.4158C100.932 16.5769 101.236 15.6078 101.236 14.523C101.236 13.3225 100.947 12.2811 100.354 11.3699C99.76 10.4587 98.9639 9.73547 97.9507 9.2003C96.952 8.66514 95.8229 8.40479 94.5781 8.40479H87.4276C87.0078 8.40479 86.646 8.53496 86.3709 8.82424C86.0959 9.09906 85.9512 9.46066 85.9512 9.88011V9.89458V30.3611V30.3756C85.9512 30.795 86.0959 31.1566 86.3999 31.4459C86.7183 31.7207 87.0802 31.8509 87.5144 31.8509H95.0992C96.5467 31.8509 97.8349 31.5472 98.9495 30.9397C100.078 30.3322 100.961 29.5077 101.598 28.4519C102.25 27.396 102.568 26.1666 102.568 24.778C102.554 23.2738 102.148 22.0154 101.294 21.0174ZM88.8895 28.9292V20.7281H95.0413C95.9387 20.7281 96.7204 20.8872 97.3862 21.2054C98.081 21.5236 98.6165 21.972 98.9929 22.565C99.3837 23.158 99.5719 23.8523 99.5719 24.6768C99.5719 25.588 99.3692 26.3401 98.9929 26.9621C98.6021 27.5696 98.0665 28.0613 97.3717 28.4085C96.7059 28.7411 95.9242 28.9147 95.0268 28.9147H88.8895V28.9292ZM88.8895 11.1674H94.6215C95.765 11.1674 96.6769 11.4567 97.3862 12.0208C98.081 12.5704 98.4428 13.3804 98.4428 14.5086C98.4428 15.6512 98.081 16.5046 97.3862 17.0976C96.6769 17.6907 95.765 18.0089 94.6215 18.0089H88.8895V11.1674Z" fill="white"/>
<path d="M69.5944 42.5689C69.5365 42.511 69.4641 42.4676 69.3773 42.4532C69.3049 42.4387 69.2181 42.4676 69.1457 42.5255C68.8707 42.728 68.5956 42.8871 68.2917 43.0028C67.9877 43.1185 67.6693 43.1619 67.3363 43.1619C66.9455 43.1619 66.5692 43.0896 66.2218 42.9305C65.8744 42.7714 65.5704 42.5544 65.3099 42.2796C65.0493 42.0048 64.8467 41.6866 64.6875 41.325C64.5427 40.9634 64.4703 40.5729 64.4703 40.1679C64.4703 39.7629 64.5427 39.3868 64.6875 39.0252C64.8467 38.6636 65.0493 38.3454 65.3099 38.0706C65.5704 37.7958 65.8744 37.5788 66.2218 37.4197C66.5692 37.2606 66.9455 37.1883 67.3363 37.1883C67.7127 37.1883 68.0311 37.2461 68.3206 37.3474C68.5956 37.4486 68.8562 37.5933 69.1023 37.8102C69.1602 37.8536 69.2181 37.8826 69.2904 37.897C69.3628 37.897 69.4207 37.897 69.4641 37.8681C69.5075 37.8392 69.5365 37.8102 69.551 37.7524C69.5944 37.7235 69.6378 37.6945 69.6668 37.6367C69.6957 37.5788 69.6957 37.521 69.6812 37.4776C69.6812 37.4197 69.6378 37.3619 69.5944 37.3185C69.2615 37.0437 68.9141 36.8267 68.5522 36.711C68.1903 36.5953 67.7851 36.5229 67.3508 36.5229C66.8442 36.5229 66.381 36.6242 65.9468 36.8122C65.5125 37.0003 65.1362 37.2606 64.8177 37.5933C64.4993 37.926 64.2388 38.3165 64.0506 38.7649C63.8769 39.1988 63.79 39.6761 63.79 40.1679C63.79 40.6741 63.8769 41.1514 64.0651 41.5998C64.2532 42.0337 64.4993 42.4243 64.8322 42.7714C65.1651 43.1041 65.5415 43.3644 65.9612 43.5524C66.3955 43.7405 66.8587 43.8417 67.3508 43.8417C67.7706 43.8417 68.1614 43.7839 68.5522 43.6682C68.943 43.5524 69.2904 43.3355 69.5944 43.0607C69.6378 43.0173 69.6523 42.9739 69.6668 42.945C69.6812 42.9016 69.6957 42.8582 69.6957 42.8148C69.6812 42.6991 69.6523 42.6267 69.5944 42.5689Z" fill="white"/>
<path d="M74.6168 39.8931C74.4286 39.517 74.1536 39.2277 73.8062 39.0252C73.4588 38.8083 73.068 38.707 72.5903 38.707C72.1271 38.707 71.7073 38.8227 71.3455 39.0397C70.9836 39.2567 70.6941 39.5604 70.4915 39.9509C70.2888 40.327 70.1875 40.7754 70.1875 41.2672C70.1875 41.7589 70.2888 42.2073 70.5059 42.5834C70.7231 42.9739 71.027 43.2632 71.4034 43.4946C71.7942 43.7116 72.2284 43.8128 72.7206 43.8128C73.0101 43.8128 73.2996 43.755 73.618 43.6537C73.9365 43.538 74.1825 43.3934 74.3852 43.2198C74.4575 43.1619 74.4865 43.0896 74.4865 43.0028C74.4865 42.9161 74.4431 42.8437 74.3707 42.7714C74.3128 42.728 74.2404 42.6991 74.1536 42.7136C74.0667 42.7136 73.9944 42.7425 73.922 42.8003C73.7917 42.9161 73.6035 43.0173 73.3864 43.0896C73.1693 43.1619 72.9522 43.2053 72.7206 43.2053C72.3587 43.2053 72.0258 43.1185 71.7508 42.9594C71.4758 42.8003 71.2442 42.5689 71.0849 42.2796C70.9547 42.0482 70.8823 41.7879 70.8533 41.4986H74.5444C74.7326 41.4986 74.7181 41.4986 74.776 41.4407C74.8339 41.3829 74.8628 41.2961 74.8628 41.2093C74.9063 40.6886 74.8049 40.2691 74.6168 39.8931ZM71.6784 39.5749C71.9389 39.4158 72.2429 39.329 72.5903 39.329C72.9377 39.329 73.2272 39.4013 73.4733 39.5604C73.7193 39.7195 73.922 39.9365 74.0522 40.2257C74.1391 40.3993 74.1825 40.5729 74.2115 40.7754H70.8968C70.9257 40.5874 70.9836 40.4282 71.056 40.2691C71.2152 39.9799 71.4179 39.7484 71.6784 39.5749Z" fill="white"/>
<path d="M81.2756 38.8664C81.2177 38.7941 81.1308 38.7651 81.015 38.7651C80.8558 38.7651 80.7255 38.8375 80.6387 38.9821L78.6412 41.8749L76.6437 38.9821C76.5423 38.8375 76.4265 38.7651 76.2673 38.7651C76.1515 38.7651 76.0647 38.7941 76.0068 38.8664C75.9489 38.9242 75.9199 39.011 75.9199 39.1267V43.4081C75.9199 43.5093 75.9489 43.5961 76.0068 43.6684C76.0791 43.7263 76.1515 43.7552 76.2673 43.7552C76.3686 43.7552 76.4555 43.7263 76.5134 43.6684C76.5713 43.6106 76.6002 43.5238 76.6002 43.4081V40.009L78.3082 42.4535C78.3951 42.5981 78.5109 42.6559 78.6412 42.6559C78.7714 42.6559 78.8872 42.5836 78.9741 42.4535L80.6966 39.9656V43.3936C80.6966 43.4949 80.7255 43.5816 80.7834 43.654C80.8413 43.7118 80.9282 43.7407 81.0295 43.7407C81.1308 43.7407 81.2177 43.7118 81.2756 43.654C81.3335 43.5961 81.3769 43.5093 81.3769 43.3936V39.1123C81.3769 39.011 81.3335 38.9242 81.2756 38.8664Z" fill="white"/>
<path d="M86.9644 39.8931C86.7762 39.517 86.5012 39.2277 86.1538 39.0252C85.8064 38.8083 85.4156 38.707 84.938 38.707C84.4748 38.707 84.055 38.8227 83.6931 39.0397C83.3313 39.2567 83.0418 39.5604 82.8391 39.9509C82.6365 40.327 82.5352 40.7754 82.5352 41.2672C82.5352 41.7589 82.6365 42.2073 82.8536 42.5834C83.0707 42.9739 83.3747 43.2632 83.751 43.4946C84.1418 43.7116 84.5761 43.8128 85.0682 43.8128C85.3577 43.8128 85.6472 43.755 85.9657 43.6537C86.2841 43.538 86.5302 43.3934 86.7328 43.2198C86.8052 43.1619 86.8341 43.0896 86.8341 43.0028C86.8341 42.9161 86.7907 42.8437 86.7183 42.7714C86.6604 42.728 86.5881 42.6991 86.5012 42.7136C86.4144 42.7136 86.342 42.7425 86.2696 42.8003C86.1394 42.9161 85.9512 43.0173 85.7341 43.0896C85.5169 43.1619 85.2998 43.2053 85.0682 43.2053C84.7064 43.2053 84.3734 43.1185 84.0984 42.9594C83.8234 42.8003 83.5918 42.5689 83.4326 42.2796C83.3023 42.0482 83.2299 41.7879 83.201 41.4986H86.892C87.0368 41.4986 87.0657 41.4986 87.1236 41.4407C87.1815 41.3829 87.2105 41.2961 87.2105 41.2093C87.2539 40.6886 87.1526 40.2691 86.9644 39.8931ZM83.2589 40.7754C83.2878 40.5874 83.3457 40.4282 83.4181 40.2691C83.5629 39.9799 83.7655 39.7484 84.026 39.5893C84.2866 39.4302 84.5906 39.3434 84.938 39.3434C85.2853 39.3434 85.5748 39.4158 85.8209 39.5749C86.067 39.734 86.2696 39.9509 86.3999 40.2402C86.4868 40.4138 86.5302 40.5874 86.5591 40.7898H83.2589V40.7754Z" fill="white"/>
<path d="M89.685 37.9548C89.9166 38.0561 90.1916 38.0995 90.4956 38.0995C90.7996 38.0995 91.0601 38.0561 91.3062 37.9548C91.5378 37.8536 91.726 37.7089 91.8707 37.5354C92.0155 37.3618 92.0878 37.1593 92.0878 36.9424C92.0878 36.8411 92.0589 36.7688 92.001 36.6965C91.9431 36.6241 91.8562 36.5952 91.7694 36.5952C91.6825 36.5952 91.5957 36.6241 91.5378 36.6965C91.4799 36.7688 91.4509 36.8556 91.4509 36.9713C91.4509 37.1448 91.3641 37.275 91.1904 37.3763C91.0167 37.4775 90.7996 37.5354 90.539 37.5354C90.2785 37.5354 90.0614 37.4775 89.8877 37.3763C89.714 37.275 89.6271 37.1304 89.6271 36.9713C89.6271 36.8556 89.5982 36.7688 89.5403 36.6965C89.4824 36.6241 89.3955 36.5952 89.3087 36.5952C89.2218 36.5952 89.135 36.6241 89.0771 36.6965C89.0192 36.7688 88.9902 36.8411 88.9902 36.9424C88.9902 37.1593 89.0626 37.3618 89.1929 37.5354C89.2653 37.7089 89.4534 37.8536 89.685 37.9548Z" fill="white"/>
<path d="M92.6672 38.924C92.6093 38.8517 92.5224 38.8228 92.4211 38.8228C92.3198 38.8228 92.2329 38.8517 92.175 38.924C92.1171 38.9819 92.0882 39.0686 92.0882 39.1699V41.918C92.0882 42.1784 91.9579 42.4098 91.8277 42.5979C91.6974 42.8003 91.5092 42.9595 91.2631 43.0752C91.0315 43.1909 90.771 43.2487 90.4815 43.2487C90.1775 43.2487 89.9025 43.1909 89.6709 43.0607C89.4393 42.945 89.2512 42.757 89.1064 42.5111C88.9761 42.2652 88.9038 41.9614 88.9038 41.5709V39.1844C88.9038 39.0831 88.8748 39.0108 88.8024 38.9385C88.7301 38.8661 88.6577 38.8372 88.5564 38.8372C88.455 38.8372 88.3827 38.8661 88.3103 38.9385C88.2379 39.0108 88.209 39.0831 88.209 39.1844V41.5709C88.209 42.0771 88.3103 42.4966 88.4985 42.8437C88.6866 43.1909 88.9617 43.4512 89.2946 43.6393C89.6275 43.8128 90.0038 43.8996 90.4236 43.8996C90.8144 43.8996 91.1618 43.8128 91.4658 43.6393C91.7119 43.4946 91.929 43.3211 92.0882 43.1041V43.3066C92.0882 43.4078 92.1171 43.4946 92.175 43.5669C92.2474 43.6248 92.3198 43.6537 92.4211 43.6537C92.5224 43.6537 92.6093 43.6248 92.6672 43.5669C92.7396 43.5091 92.7685 43.4223 92.7685 43.3066V39.141C92.7685 39.0686 92.7396 38.9819 92.6672 38.924Z" fill="white"/>
<path d="M98.6018 38.8952C98.5439 38.8229 98.457 38.7939 98.3557 38.7939C98.2544 38.7939 98.1675 38.8229 98.1096 38.8952C98.0372 38.9531 98.0083 39.0398 98.0083 39.1411V40.7755H94.8239V39.1411C94.8239 39.0398 94.7949 38.9531 94.7225 38.8952C94.6646 38.8229 94.5778 38.7939 94.4765 38.7939C94.3751 38.7939 94.2883 38.8229 94.2304 38.8952C94.1725 38.9531 94.1436 39.0398 94.1436 39.1411V43.3646C94.1436 43.4658 94.1725 43.5526 94.2304 43.6249C94.3028 43.6828 94.3751 43.7117 94.4765 43.7117C94.5778 43.7117 94.6646 43.6828 94.7225 43.6249C94.7949 43.5526 94.8239 43.4658 94.8239 43.3646V41.4698H98.0083V43.3646C98.0083 43.4658 98.0372 43.5526 98.1096 43.6249C98.182 43.6828 98.2544 43.7117 98.3557 43.7117C98.457 43.7117 98.5439 43.6828 98.6018 43.6249C98.6597 43.5526 98.6886 43.4658 98.6886 43.3646V39.1411C98.6886 39.0398 98.6597 38.9531 98.6018 38.8952Z" fill="white"/>
<path d="M104.71 39.9509C104.493 39.5604 104.189 39.2711 103.798 39.0397C103.421 38.8083 102.987 38.707 102.509 38.707C102.032 38.707 101.598 38.8227 101.207 39.0397C100.816 39.2567 100.512 39.5604 100.295 39.9509C100.078 40.3415 99.9619 40.7754 99.9619 41.2527C99.9619 41.73 100.063 42.1639 100.28 42.5545C100.497 42.945 100.801 43.2487 101.163 43.4657C101.54 43.6826 101.959 43.7984 102.423 43.7984C102.871 43.7984 103.262 43.6971 103.61 43.4946C103.928 43.3066 104.189 43.0607 104.377 42.7569V43.3644C104.377 43.4657 104.406 43.5525 104.478 43.6103C104.536 43.6682 104.623 43.6971 104.724 43.6971C104.825 43.6971 104.912 43.6682 104.97 43.6103C105.028 43.5525 105.071 43.4657 105.071 43.3644V41.4552V41.2961V41.2238C105.071 40.7465 104.927 40.327 104.71 39.9509ZM104.102 42.2362C103.942 42.5255 103.725 42.7425 103.436 42.9161C103.161 43.0752 102.842 43.1619 102.495 43.1619C102.148 43.1619 101.829 43.0752 101.554 42.9161C101.279 42.7569 101.048 42.5255 100.888 42.2362C100.729 41.947 100.642 41.6143 100.642 41.2527C100.642 40.8911 100.729 40.5584 100.888 40.2691C101.048 39.9799 101.279 39.7629 101.554 39.5893C101.829 39.4158 102.148 39.329 102.495 39.329C102.842 39.329 103.161 39.4158 103.436 39.5893C103.711 39.7484 103.942 39.9799 104.102 40.2691C104.261 40.5584 104.348 40.8766 104.348 41.2527C104.362 41.6143 104.275 41.947 104.102 42.2362Z" fill="white"/>
<path d="M109.762 38.8229C109.704 38.7506 109.617 38.7217 109.516 38.7217H107.982C107.663 38.7217 107.374 38.794 107.113 38.9242C106.867 39.0544 106.665 39.2568 106.52 39.4883C106.39 39.7197 106.317 39.9945 106.317 40.3127C106.317 40.6165 106.375 40.8768 106.505 41.0938C106.636 41.3252 106.809 41.4988 107.041 41.6289C107.099 41.6579 107.171 41.6868 107.229 41.7157L106.057 43.2055C105.999 43.2778 105.97 43.3502 105.97 43.4369C105.97 43.5093 106.013 43.596 106.086 43.6539C106.143 43.7118 106.23 43.7407 106.332 43.7407C106.447 43.7407 106.534 43.6973 106.607 43.6105L107.996 41.9038H109.183V43.3646C109.183 43.4803 109.212 43.5671 109.27 43.625C109.342 43.6828 109.415 43.7118 109.516 43.7118C109.617 43.7118 109.704 43.6828 109.762 43.625C109.834 43.5526 109.863 43.4659 109.863 43.3646V39.0688C109.863 38.982 109.834 38.8952 109.762 38.8229ZM109.183 41.4554H107.88C107.562 41.4554 107.301 41.3686 107.084 41.1806C106.867 40.9925 106.766 40.7322 106.766 40.414C106.766 40.1102 106.867 39.8643 107.084 39.6908C107.301 39.5027 107.562 39.416 107.88 39.416H109.183V41.4554Z" fill="white"/>
<path d="M115.971 43.7984C115.493 43.7984 115.059 43.6826 114.683 43.4657C114.307 43.2343 114.017 42.9305 113.8 42.5545C113.583 42.1639 113.481 41.73 113.481 41.2527C113.481 40.7609 113.583 40.327 113.8 39.9509C114.003 39.5604 114.292 39.2711 114.654 39.0397C115.016 38.8083 115.436 38.707 115.899 38.707C116.275 38.707 116.608 38.7794 116.926 38.924C117.245 39.0686 117.52 39.2856 117.766 39.5893C117.838 39.6617 117.853 39.7484 117.838 39.8208C117.824 39.8931 117.766 39.9654 117.679 40.0377C117.607 40.0811 117.534 40.11 117.448 40.0956C117.375 40.0811 117.303 40.0377 117.23 39.9654C116.883 39.5604 116.434 39.3579 115.899 39.3579C115.551 39.3579 115.247 39.4447 114.987 39.6038C114.726 39.7629 114.524 39.9943 114.379 40.2836C114.234 40.5729 114.162 40.9056 114.162 41.2672C114.162 41.6288 114.234 41.9614 114.393 42.2507C114.553 42.54 114.755 42.7569 115.03 42.9305C115.305 43.0896 115.624 43.1764 115.971 43.1764C116.203 43.1764 116.42 43.1475 116.622 43.0896C116.825 43.0173 116.999 42.9161 117.158 42.7859C117.23 42.728 117.303 42.6846 117.39 42.6846C117.462 42.6846 117.549 42.6991 117.607 42.7569C117.679 42.8293 117.723 42.9016 117.723 42.9884C117.737 43.0752 117.708 43.1475 117.636 43.2053C117.187 43.5959 116.637 43.7984 115.971 43.7984Z" fill="white"/>
<path d="M125.814 39.7052C125.67 39.387 125.452 39.1556 125.177 38.982C124.917 38.8085 124.598 38.7217 124.251 38.7217C123.889 38.7217 123.556 38.8085 123.267 38.982C122.977 39.1556 122.746 39.387 122.586 39.7052C122.442 39.416 122.239 39.199 121.993 39.0399C121.732 38.8663 121.414 38.7795 121.067 38.7795C120.719 38.7795 120.415 38.8663 120.14 39.0399C119.952 39.1556 119.793 39.3147 119.663 39.4883V39.1701C119.663 39.0688 119.634 38.982 119.561 38.9242C119.503 38.8519 119.416 38.8229 119.315 38.8229C119.214 38.8229 119.127 38.8519 119.055 38.9242C118.997 38.9965 118.968 39.0688 118.968 39.1701V43.3357C118.968 43.4369 118.997 43.5237 119.055 43.5816C119.127 43.6394 119.199 43.6684 119.315 43.6684C119.416 43.6684 119.489 43.6394 119.561 43.5816C119.634 43.5237 119.663 43.4369 119.663 43.3357V40.7756C119.663 40.385 119.851 40.0524 120.097 39.8209C120.328 39.5751 120.632 39.4449 121.009 39.4449C121.356 39.4449 121.631 39.5751 121.848 39.8354C122.065 40.0813 122.181 40.4284 122.181 40.8624V43.4948C122.181 43.596 122.21 43.6828 122.282 43.7551C122.355 43.813 122.427 43.8419 122.529 43.8419C122.63 43.8419 122.702 43.813 122.775 43.7551C122.847 43.6828 122.876 43.596 122.876 43.4948V40.8624C122.876 40.8334 122.876 40.819 122.876 40.79C122.876 40.3706 123.079 40.0379 123.31 39.7776C123.542 39.5172 123.846 39.387 124.222 39.387C124.569 39.387 124.845 39.5172 125.062 39.7776C125.279 40.0234 125.395 40.3706 125.395 40.8045V43.4369C125.395 43.5382 125.423 43.625 125.496 43.6973C125.554 43.7551 125.641 43.7841 125.742 43.7841C125.843 43.7841 125.916 43.7551 125.988 43.6973C126.06 43.625 126.089 43.5382 126.089 43.4369V40.8045C126.046 40.3706 125.974 40.009 125.814 39.7052Z" fill="white"/>
<path d="M129.679 43.7982C129.187 43.7982 128.753 43.6825 128.377 43.4655C127.986 43.2485 127.696 42.9448 127.465 42.5543C127.248 42.1637 127.132 41.7298 127.132 41.2525C127.132 40.7607 127.248 40.3123 127.465 39.9363C127.682 39.5458 127.986 39.2565 128.377 39.0251C128.767 38.8081 129.202 38.6924 129.679 38.6924C130.157 38.6924 130.606 38.8081 130.982 39.0251C131.373 39.242 131.662 39.5458 131.894 39.9363C132.111 40.3268 132.227 40.7607 132.227 41.2525C132.227 41.7443 132.111 42.1782 131.894 42.5543C131.677 42.9448 131.373 43.2341 130.982 43.4655C130.606 43.6969 130.172 43.7982 129.679 43.7982ZM129.679 43.1618C130.027 43.1618 130.345 43.075 130.635 42.9159C130.91 42.7568 131.141 42.5253 131.301 42.2361C131.46 41.9468 131.532 41.6286 131.532 41.2525C131.532 40.8909 131.46 40.5582 131.301 40.269C131.141 39.9797 130.924 39.7483 130.635 39.5891C130.36 39.43 130.041 39.3433 129.679 39.3433C129.318 39.3433 129.014 39.43 128.724 39.5891C128.449 39.7483 128.217 39.9797 128.058 40.269C127.899 40.5582 127.827 40.8764 127.827 41.2525C127.827 41.6141 127.899 41.9468 128.058 42.2361C128.217 42.5253 128.449 42.7423 128.724 42.9159C129.014 43.075 129.332 43.1618 129.679 43.1618Z" fill="white"/>
<path d="M138.711 38.8664C138.653 38.7941 138.566 38.7651 138.451 38.7651C138.291 38.7651 138.161 38.8375 138.074 38.9821L136.077 41.8749L134.079 38.9821C133.978 38.8375 133.862 38.7651 133.703 38.7651C133.587 38.7651 133.5 38.7941 133.442 38.8664C133.384 38.9242 133.355 39.011 133.355 39.1267V43.4081C133.355 43.5093 133.384 43.5961 133.442 43.6684C133.515 43.7263 133.587 43.7552 133.703 43.7552C133.804 43.7552 133.891 43.7263 133.949 43.6684C134.007 43.6106 134.036 43.5238 134.036 43.4081V40.009L135.744 42.4535C135.831 42.5981 135.946 42.6559 136.077 42.6559C136.207 42.6559 136.323 42.5836 136.41 42.4535L138.132 39.9656V43.3936C138.132 43.4949 138.161 43.5816 138.219 43.654C138.277 43.7118 138.364 43.7407 138.465 43.7407C138.566 43.7407 138.653 43.7118 138.711 43.654C138.783 43.5961 138.812 43.5093 138.812 43.3936V39.1123C138.812 39.011 138.783 38.9242 138.711 38.8664Z" fill="white"/>
<path d="M144.805 39.9509C144.588 39.5604 144.284 39.2711 143.893 39.0397C143.517 38.8083 143.083 38.707 142.605 38.707C142.128 38.707 141.693 38.8227 141.302 39.0397C140.912 39.2567 140.608 39.5604 140.391 39.9509C140.173 40.3415 140.058 40.7754 140.058 41.2527C140.058 41.73 140.159 42.1639 140.376 42.5545C140.593 42.945 140.897 43.2487 141.259 43.4657C141.635 43.6826 142.055 43.7984 142.518 43.7984C142.967 43.7984 143.358 43.6971 143.705 43.4946C144.038 43.3066 144.299 43.0462 144.501 42.728V43.3644C144.501 43.4657 144.53 43.5525 144.603 43.6103C144.661 43.6682 144.747 43.6971 144.849 43.6971C144.95 43.6971 145.037 43.6682 145.095 43.6103C145.153 43.5525 145.196 43.4657 145.196 43.3644V41.4552C145.196 40.9779 145.022 40.327 144.805 39.9509ZM144.197 42.2362C144.038 42.5255 143.821 42.7425 143.532 42.9161C143.257 43.0752 142.938 43.1619 142.591 43.1619C142.243 43.1619 141.925 43.0752 141.65 42.9161C141.375 42.7569 141.143 42.5255 140.984 42.2362C140.825 41.947 140.738 41.6143 140.738 41.2527C140.738 40.8911 140.825 40.5584 140.984 40.2691C141.143 39.9799 141.375 39.7629 141.65 39.5893C141.925 39.4158 142.243 39.329 142.591 39.329C142.938 39.329 143.257 39.4158 143.532 39.5893C143.807 39.7484 144.038 39.9799 144.197 40.2691C144.357 40.5584 144.443 40.8766 144.443 41.2527C144.458 41.6143 144.371 41.947 144.197 42.2362Z" fill="white"/>
<path d="M153.172 39.7052C153.027 39.387 152.81 39.1556 152.535 38.982C152.274 38.8085 151.956 38.7217 151.608 38.7217C151.247 38.7217 150.914 38.8085 150.624 38.982C150.335 39.1556 150.103 39.387 149.944 39.7052C149.799 39.416 149.596 39.199 149.35 39.0399C149.09 38.8663 148.771 38.7795 148.424 38.7795C148.077 38.7795 147.773 38.8663 147.498 39.0399C147.309 39.1556 147.15 39.3147 147.02 39.4883V39.1701C147.02 39.0688 146.991 38.982 146.919 38.9242C146.861 38.8519 146.774 38.8229 146.673 38.8229C146.571 38.8229 146.484 38.8519 146.412 38.9242C146.354 38.9965 146.325 39.0688 146.325 39.1701V43.3357C146.325 43.4369 146.354 43.5237 146.412 43.5816C146.484 43.6394 146.557 43.6684 146.673 43.6684C146.774 43.6684 146.846 43.6394 146.919 43.5816C146.991 43.5237 147.02 43.4369 147.02 43.3357V40.7756C147.02 40.385 147.208 40.0524 147.454 39.8209C147.686 39.5751 147.99 39.4449 148.366 39.4449C148.714 39.4449 148.989 39.5751 149.206 39.8354C149.423 40.0813 149.539 40.4284 149.539 40.8624V43.4948C149.539 43.596 149.568 43.6828 149.64 43.7551C149.712 43.813 149.785 43.8419 149.886 43.8419C149.987 43.8419 150.06 43.813 150.132 43.7551C150.204 43.6828 150.233 43.596 150.233 43.4948V40.8624C150.233 40.8334 150.233 40.819 150.233 40.79C150.233 40.3706 150.436 40.0379 150.668 39.7776C150.899 39.5172 151.203 39.387 151.58 39.387C151.927 39.387 152.202 39.5172 152.419 39.7776C152.636 40.0234 152.752 40.3706 152.752 40.8045V43.4369C152.752 43.5382 152.781 43.625 152.853 43.6973C152.926 43.7551 152.998 43.7841 153.099 43.7841C153.201 43.7841 153.273 43.7551 153.345 43.6973C153.418 43.625 153.447 43.5382 153.447 43.4369V40.8045C153.403 40.3706 153.331 40.009 153.172 39.7052Z" fill="white"/>
<path d="M157.021 43.7982C156.529 43.7982 156.095 43.6825 155.718 43.4655C155.328 43.2485 155.038 42.9448 154.807 42.5543C154.589 42.1637 154.474 41.7298 154.474 41.2525C154.474 40.7607 154.589 40.3123 154.807 39.9363C155.024 39.5458 155.328 39.2565 155.718 39.0251C156.109 38.8081 156.544 38.6924 157.021 38.6924C157.513 38.6924 157.948 38.8081 158.324 39.0251C158.715 39.242 159.004 39.5458 159.236 39.9363C159.453 40.3268 159.569 40.7607 159.569 41.2525C159.569 41.7443 159.453 42.1782 159.236 42.5543C159.019 42.9448 158.715 43.2341 158.324 43.4655C157.933 43.6969 157.499 43.7982 157.021 43.7982ZM157.021 43.1618C157.369 43.1618 157.687 43.075 157.977 42.9159C158.252 42.7568 158.483 42.5253 158.642 42.2361C158.802 41.9468 158.874 41.6286 158.874 41.2525C158.874 40.8909 158.802 40.5582 158.642 40.269C158.483 39.9797 158.266 39.7483 157.977 39.5891C157.702 39.43 157.383 39.3433 157.021 39.3433C156.674 39.3433 156.355 39.43 156.066 39.5891C155.791 39.7483 155.559 39.9797 155.4 40.269C155.241 40.5582 155.168 40.8764 155.168 41.2525C155.168 41.6141 155.241 41.9468 155.4 42.2361C155.559 42.5253 155.791 42.7423 156.066 42.9159C156.341 43.075 156.659 43.1618 157.021 43.1618Z" fill="white"/>
<path d="M164.91 43.3646L162.927 39.0398C162.884 38.9531 162.84 38.8952 162.782 38.8518C162.724 38.8084 162.652 38.7939 162.58 38.7939C162.435 38.7939 162.319 38.8663 162.247 39.0254L160.235 43.3356C160.191 43.4224 160.191 43.5092 160.22 43.5815C160.264 43.6538 160.322 43.7117 160.409 43.7551C160.495 43.7985 160.582 43.8129 160.669 43.784C160.756 43.7551 160.828 43.6972 160.872 43.596L162.594 39.8354L164.288 43.596C164.331 43.6828 164.404 43.7551 164.476 43.784C164.548 43.8129 164.65 43.7985 164.736 43.7551C164.823 43.7117 164.881 43.6538 164.91 43.5815C164.954 43.5381 164.954 43.4513 164.91 43.3646Z" fill="white"/>
<path d="M168.138 43.7982C167.646 43.7982 167.212 43.6825 166.836 43.4655C166.445 43.2485 166.155 42.9448 165.924 42.5543C165.707 42.1637 165.591 41.7298 165.591 41.2525C165.591 40.7607 165.707 40.3123 165.924 39.9363C166.141 39.5458 166.445 39.2565 166.836 39.0251C167.226 38.8081 167.661 38.6924 168.138 38.6924C168.631 38.6924 169.065 38.8081 169.441 39.0251C169.832 39.242 170.121 39.5458 170.353 39.9363C170.57 40.3268 170.686 40.7607 170.686 41.2525C170.686 41.7443 170.57 42.1782 170.353 42.5543C170.136 42.9448 169.832 43.2341 169.441 43.4655C169.065 43.6969 168.631 43.7982 168.138 43.7982ZM168.138 43.1618C168.486 43.1618 168.804 43.075 169.094 42.9159C169.369 42.7568 169.6 42.5253 169.76 42.2361C169.919 41.9468 169.991 41.6286 169.991 41.2525C169.991 40.8909 169.919 40.5582 169.76 40.269C169.6 39.9797 169.383 39.7483 169.094 39.5891C168.819 39.43 168.5 39.3433 168.138 39.3433C167.776 39.3433 167.473 39.43 167.183 39.5891C166.908 39.7483 166.676 39.9797 166.517 40.269C166.358 40.5582 166.286 40.8764 166.286 41.2525C166.286 41.6141 166.358 41.9468 166.517 42.2361C166.676 42.5253 166.908 42.7423 167.183 42.9159C167.473 43.075 167.791 43.1618 168.138 43.1618Z" fill="white"/>
<path d="M173.364 43.7984C173.002 43.7984 172.684 43.7405 172.394 43.6392C172.105 43.5235 171.873 43.3789 171.714 43.1764C171.555 42.9739 171.468 42.7425 171.468 42.4677C171.468 42.2362 171.526 42.0193 171.656 41.8313C171.786 41.6432 171.989 41.4841 172.264 41.3395C172.539 41.1948 172.915 41.0647 173.364 40.9779C173.769 40.8911 174.059 40.7754 174.203 40.6307C174.363 40.4861 174.435 40.2981 174.435 40.0811C174.435 39.8641 174.348 39.6906 174.16 39.5604C173.972 39.4158 173.726 39.3435 173.393 39.3435C173.132 39.3435 172.901 39.3868 172.684 39.4881C172.467 39.5749 172.293 39.705 172.148 39.8641C172.076 39.9365 172.003 39.9799 171.916 39.9943C171.83 40.0088 171.757 40.0088 171.699 39.9654C171.598 39.9075 171.54 39.8352 171.526 39.7484C171.511 39.6617 171.526 39.5749 171.584 39.5026C171.757 39.2711 172.003 39.0686 172.307 38.924C172.611 38.7794 172.973 38.707 173.378 38.707C173.711 38.707 174.015 38.7649 174.276 38.8661C174.536 38.9674 174.739 39.1265 174.884 39.329C175.029 39.5315 175.101 39.7918 175.101 40.0956C175.101 40.4138 174.985 40.7031 174.739 40.9489C174.493 41.1948 174.088 41.3829 173.523 41.513C173.002 41.6288 172.64 41.7589 172.452 41.9036C172.249 42.0482 172.163 42.2362 172.163 42.4532C172.163 42.6846 172.264 42.8727 172.452 42.9884C172.655 43.1041 172.944 43.1619 173.349 43.1619C173.653 43.1619 173.928 43.1185 174.16 43.0462C174.406 42.9739 174.609 42.8437 174.768 42.6557C174.826 42.5834 174.898 42.54 174.985 42.5255C175.072 42.4966 175.159 42.5255 175.246 42.5834C175.318 42.6557 175.361 42.728 175.376 42.8148C175.376 42.9016 175.347 42.9739 175.289 43.0462C175.086 43.2776 174.797 43.4512 174.45 43.5814C174.073 43.7405 173.726 43.7984 173.364 43.7984Z" fill="white"/>
<path d="M185.899 38.8229C185.841 38.7506 185.754 38.7217 185.653 38.7217H184.118C183.8 38.7217 183.51 38.794 183.25 38.9242C183.004 39.0544 182.801 39.2568 182.656 39.4883C182.526 39.7197 182.454 39.9945 182.454 40.3127C182.454 40.6165 182.512 40.8768 182.642 41.0938C182.772 41.3252 182.946 41.4988 183.177 41.6289C183.235 41.6579 183.293 41.6868 183.351 41.7157L182.179 43.2055C182.121 43.2778 182.092 43.3502 182.092 43.4369C182.092 43.5093 182.135 43.596 182.208 43.6539C182.266 43.7118 182.352 43.7407 182.454 43.7407C182.569 43.7407 182.656 43.6973 182.729 43.6105L184.118 41.9038H185.334V43.3646C185.334 43.4803 185.363 43.5671 185.421 43.625C185.493 43.6828 185.566 43.7118 185.667 43.7118C185.768 43.7118 185.855 43.6828 185.913 43.625C185.985 43.5526 186.014 43.4659 186.014 43.3646V39.0688C186 38.982 185.971 38.8952 185.899 38.8229ZM185.32 41.4554H184.017C183.698 41.4554 183.438 41.3686 183.221 41.1806C183.004 40.9925 182.902 40.7322 182.902 40.414C182.902 40.1102 183.004 39.8643 183.221 39.6908C183.438 39.5027 183.698 39.416 184.017 39.416H185.32V41.4554Z" fill="white"/>
<path d="M136.424 29.3777C136.178 29.0884 135.86 28.9438 135.469 28.9438H134.702C134.253 28.9438 133.877 28.7268 133.573 28.2495C133.269 27.7433 133.109 27.0924 133.109 26.2824V10.2419C133.109 10.184 133.109 10.1262 133.095 10.0538C133.095 10.0538 133.095 9.20046 132.661 8.6219C132.661 8.60743 132.646 8.60743 132.646 8.59297C132.617 8.54958 132.574 8.50619 132.53 8.46279L132.516 8.44833L132.502 8.43387C132.473 8.40494 132.458 8.39047 132.429 8.36155C132.227 8.17351 131.966 8.07227 131.648 8.07227C131.633 8.07227 131.633 8.07227 131.619 8.07227C131.604 8.07227 131.604 8.07227 131.59 8.07227C130.055 8.07227 130.157 9.77902 130.157 9.77902V26.2535C130.157 27.3383 130.345 28.3074 130.721 29.1463C131.098 29.9852 131.633 30.665 132.313 31.1568C133.008 31.6341 133.804 31.8655 134.702 31.8655H134.977C135.483 31.8655 135.903 31.7498 136.236 31.4894C136.598 31.2002 136.772 30.8241 136.772 30.3757C136.786 29.9997 136.67 29.6381 136.424 29.3777Z" fill="white"/>
<path d="M180.891 38.924C180.833 38.8517 180.746 38.8228 180.645 38.8228C180.543 38.8228 180.457 38.8517 180.399 38.924C180.341 38.9819 180.312 39.0686 180.312 39.1699V41.918C180.312 42.1784 180.182 42.4098 180.051 42.5979C179.921 42.8003 179.733 42.9595 179.487 43.0752C179.255 43.1909 178.995 43.2487 178.705 43.2487C178.401 43.2487 178.126 43.1909 177.895 43.0607C177.663 42.945 177.475 42.757 177.33 42.5111C177.2 42.2652 177.127 41.9614 177.127 41.5709V39.1844C177.127 39.0831 177.098 39.0108 177.026 38.9385C176.954 38.8661 176.881 38.8372 176.78 38.8372C176.679 38.8372 176.606 38.8661 176.534 38.9385C176.462 39.0108 176.433 39.0831 176.433 39.1844V41.5709C176.433 42.0771 176.534 42.4966 176.722 42.8437C176.91 43.1909 177.185 43.4512 177.518 43.6393C177.851 43.8128 178.227 43.8996 178.647 43.8996C179.038 43.8996 179.385 43.8128 179.689 43.6393C179.935 43.4946 180.153 43.3211 180.312 43.1041V43.3066C180.312 43.4078 180.341 43.4946 180.399 43.5669C180.471 43.6248 180.543 43.6537 180.645 43.6537C180.746 43.6537 180.833 43.6248 180.891 43.5669C180.963 43.5091 180.992 43.4223 180.992 43.3066V39.141C180.978 39.0686 180.949 38.9819 180.891 38.924Z" fill="white"/>
</g>
<defs>
<clipPath id="clip0_85_381">
<rect width="186" height="51" fill="white"/>
</clipPath>
</defs>
</svg>
