<svg width="222" height="254" viewBox="0 0 222 254" fill="none" xmlns="http://www.w3.org/2000/svg">
<path id="Union" fill-rule="evenodd" clip-rule="evenodd" d="M50.361 26.7496C70.3109 14.3388 85.6608 10.541 98.3161 12.0298C110.934 13.5143 121.999 20.3859 133.137 31.7457C154.823 53.8618 164.933 67.6351 170.888 78.0012C169.88 78.762 168.295 79.7144 166.064 80.8066C160.923 83.3236 154.006 85.8099 147.462 88.0626C145.64 87.2812 143.455 86.3596 141.375 85.513C139.612 84.7953 137.64 84.0108 136.011 83.4437C139.134 76.264 140.382 68.3667 139.279 60.3079C137.523 52.3376 130.699 35.6021 117.373 31.7622C117.099 31.6832 116.796 31.7372 116.557 31.8929C99.8843 42.7563 86.3361 42.7518 76.8428 39.2019C76.4424 39.0522 76.0493 38.8962 75.6635 38.7345C72.8181 37.5416 70.3686 36.0357 68.343 34.437C67.9884 34.1571 67.6468 33.8744 67.3183 33.59C66.4747 32.8597 64.4997 33.8696 64.6607 34.9727C64.7302 35.4489 64.794 35.9349 64.8515 36.4301C65.1566 39.0593 65.2833 41.9446 65.1366 44.9612C65.1131 45.444 65.0826 45.9302 65.0448 46.4192C64.046 59.3153 57.9068 74.1955 39.4924 81.6828C39.0638 81.8571 38.7928 82.3095 38.8624 82.7663C42.7327 108.165 63.6622 118.53 92.6641 114.573C108.261 112.445 121.47 104.565 129.877 93.7418C130.275 93.9356 130.702 94.087 131.152 94.1893C131.152 94.1892 131.152 94.1893 131.154 94.1897L131.154 94.1899C131.175 94.1955 131.34 94.2391 131.703 94.3594C132.066 94.4801 132.526 94.6437 133.075 94.8479C134.171 95.2559 135.511 95.7855 136.942 96.3681C139.735 97.5049 142.753 98.7939 144.727 99.6549C146.689 100.653 149.727 103.204 153.569 107.875C157.367 112.493 161.596 118.742 165.965 126.465C174.695 141.901 183.788 162.877 191.019 187.663C197.155 208.692 202.325 222.032 205.841 230.642C206.424 232.07 206.946 233.33 207.412 234.455L207.413 234.458L207.568 234.833C207.242 234.75 206.907 234.664 206.562 234.577C199.765 232.855 190.23 230.61 179.434 229.046C163.915 226.797 145.05 225.835 127.763 230.394C129.32 227.473 130.825 224.414 132.266 221.3C138.801 207.182 144.301 191.325 147.455 180.726C148.504 177.317 149.651 171.241 150.355 165.234C150.977 159.933 151.37 153.781 150.723 149.231C150.799 147.996 150.485 146.726 149.742 145.618C147.94 142.927 144.293 142.205 141.598 144.005C122.896 156.494 108.141 163.782 98.3852 166.532C93.3579 167.95 90.5405 167.901 89.3543 167.558L89.3242 167.549C89.3823 167.409 89.518 167.119 89.8154 166.662C90.4396 165.703 91.4835 164.456 93.0193 162.937C96.0821 159.908 100.492 156.387 105.666 152.636C113.445 146.998 122.425 141.208 130.258 136.159L130.258 136.158L130.26 136.158L130.26 136.157L130.26 136.157L130.262 136.156C132.373 134.795 134.401 133.488 136.299 132.252C136.95 132.087 137.582 131.807 138.168 131.407C140.844 129.579 141.529 125.931 139.699 123.26C136.166 118.105 131.251 115.63 125.475 114.462C120.049 113.366 113.314 113.323 105.604 113.323C99.8496 113.323 93.1831 114.641 87.2113 116.544C82.7679 117.959 78.3313 119.819 74.7153 121.976C74.2877 121.693 73.8361 121.41 73.3579 121.132C72.9969 120.922 72.6316 120.707 72.2615 120.491C64.7828 116.107 55.297 110.547 37.9343 111.474C35.2056 111.619 32.5547 111.947 30.0029 112.49C30.1333 109.802 30.1569 107.049 30.1371 104.555C30.0895 98.5739 29.77 93.1397 29.6633 91.4605C29.6372 91.0493 29.6066 90.5975 29.5736 90.1077C29.1718 84.1605 28.392 72.6171 30.5077 60.4133C32.804 47.1673 38.3234 34.2381 50.361 26.7496ZM17.7711 117.403C18.262 114.341 18.4353 109.614 18.3958 104.648C18.3507 98.98 18.0461 93.7902 17.9452 92.2028C17.92 91.8054 17.8892 91.3563 17.8552 90.8588L17.8552 90.8583C17.4483 84.9125 16.5698 72.0748 18.9381 58.414C21.4981 43.647 28.04 26.8231 44.1515 16.8002C65.3614 3.60569 83.4147 -1.5271 99.6902 0.387665C116.003 2.30678 129.396 11.1731 141.528 23.5451C165.014 47.4982 175.766 62.4409 182.265 74.2924C183.469 76.4867 183.623 78.9042 182.895 81.124C182.242 83.1127 180.989 84.6442 179.857 85.7446C177.614 87.9259 174.408 89.7779 171.234 91.3319C167.623 93.0994 163.354 94.8078 159.073 96.387C160.27 97.6424 161.462 98.9993 162.643 100.435C166.982 105.71 171.583 112.559 176.189 120.701C185.405 136.996 194.833 158.818 202.292 184.385C208.292 204.949 213.318 217.901 216.714 226.216C217.212 227.435 217.688 228.587 218.135 229.666C219.174 232.177 220.052 234.299 220.664 235.977C221.111 237.206 221.518 238.465 221.758 239.679C221.994 240.871 222.159 242.438 221.753 244.111C221.115 246.736 219.09 247.871 218.13 248.248C217.198 248.614 216.385 248.663 216.06 248.676C215.33 248.705 214.672 248.611 214.337 248.559C213.556 248.438 212.603 248.219 211.662 247.989C210.649 247.741 209.333 247.399 207.834 247.01C206.557 246.679 205.146 246.312 203.675 245.94C197.05 244.262 187.963 242.127 177.747 240.647C157.208 237.671 133.46 237.555 116.016 247.69C113.745 250.056 111.281 252.023 108.63 253.258C103.567 255.615 99.1228 251.929 98.1312 248.205C95.3327 237.697 90.751 223.183 85.6356 211.938C83.0486 206.25 80.5082 201.814 78.2311 199.137C77.2778 198.017 76.5704 197.446 76.1488 197.183C75.12 197.802 73.3695 199.423 71.0812 202.749C68.6049 206.347 66.0486 211.114 63.5631 216.488C58.6033 227.213 54.2339 239.679 51.5666 248.407C50.389 252.261 45.6942 255.556 40.834 253.037C34.4009 249.703 24.9197 240.56 17.6532 222.285C12.6856 209.792 7.49469 195.716 4.04707 182.331C0.647032 169.13 -1.28476 155.785 0.976788 145.093C3.27486 134.229 7.52391 125.896 14.0722 120.187C15.2536 119.157 16.4881 118.232 17.7711 117.403ZM171.922 77.0656C171.922 77.0655 171.921 77.0676 171.918 77.0719C171.921 77.0678 171.922 77.0657 171.922 77.0656ZM210.261 242.079C210.263 242.095 210.264 242.103 210.264 242.103C210.264 242.103 210.264 242.102 210.264 242.1C210.263 242.096 210.263 242.089 210.261 242.079ZM76.266 51.3382C74.3871 64.3648 68.0415 78.8334 52.4071 88.303C54.5347 93.5696 57.9226 97.1059 62.1164 99.4725C68.475 103.061 78.1103 104.727 91.0743 102.958C115.077 99.6829 129.89 80.5305 127.707 62.3741C127.01 59.4812 125.365 54.8871 122.746 50.7593C121.09 48.1496 119.368 46.2194 117.667 44.9068C106.137 51.2862 95.2918 53.5959 85.5201 52.9283C82.2256 52.7032 79.1365 52.1451 76.266 51.3382ZM38.5608 123.18C52.3917 122.442 59.3716 126.531 66.3444 130.616C66.7098 130.83 67.0752 131.044 67.4416 131.258C68.5843 131.923 69.5223 132.659 70.6284 133.586C72.4817 135.14 75.0144 135.354 77.0467 134.332C77.6198 134.126 78.1702 133.826 78.6758 133.43C81.085 131.543 85.4949 129.396 90.7809 127.712C96.0062 126.047 101.425 125.046 105.604 125.046C113.657 125.046 119.107 125.136 123.146 125.952C123.482 126.02 123.802 126.092 124.108 126.168C116.229 131.247 106.832 137.304 98.7676 143.15C93.4379 147.014 88.4573 150.948 84.7553 154.61C82.9087 156.436 81.2267 158.344 79.9706 160.274C78.7809 162.101 77.5646 164.562 77.5646 167.363C77.5647 169.841 78.1733 172.402 79.8055 174.605C81.4454 176.818 83.7211 178.133 86.0865 178.818C90.5145 180.099 95.9696 179.394 101.576 177.814C111.224 175.093 123.996 168.979 139.11 159.57C139.008 160.938 138.868 162.382 138.693 163.871C138.024 169.579 136.975 174.876 136.225 177.301L136.216 177.331L136.207 177.361C133.168 187.579 127.851 202.895 121.608 216.383C118.482 223.134 115.197 229.271 111.932 234.038C110.454 236.196 109.079 237.926 107.832 239.268C104.936 229.245 100.877 217.095 96.3264 207.09C93.6082 201.114 90.5305 195.487 87.1805 191.549C85.5106 189.586 83.4845 187.695 81.0711 186.521C78.4884 185.266 75.3762 184.818 72.2227 186.077C67.8354 187.829 64.2332 191.998 61.4034 196.111C58.3986 200.477 55.5242 205.906 52.903 211.574C48.6331 220.807 44.8294 231.125 42.0699 239.524C38.2427 235.955 33.086 229.327 28.5663 217.96C23.7985 205.969 18.9779 192.881 15.7175 180.556C24.6747 182.614 33.9369 183.503 41.676 183.213C46.8996 183.017 51.9253 182.27 55.7976 180.655C59.407 179.151 64.345 175.728 63.7374 169.452C63.4358 166.337 61.4878 164.161 60.0233 162.885C58.4457 161.511 56.4822 160.356 54.4864 159.376C50.4602 157.397 45.2108 155.602 39.7289 154.027C30.7897 151.459 20.5519 149.287 12.4045 147.81C12.4242 147.711 12.4444 147.613 12.465 147.515C14.4207 138.27 17.7405 132.552 21.7949 129.017C25.8265 125.503 31.2475 123.57 38.5608 123.18ZM11.9031 159.637C12.0867 162.179 12.4216 164.872 12.8932 167.695C22.3952 170.534 32.972 171.808 41.2355 171.499C45.0249 171.357 47.9979 170.891 50.0451 170.272C49.8143 170.15 49.5665 170.024 49.301 169.893C46.2045 168.372 41.7353 166.802 36.4821 165.293C28.5795 163.023 19.4801 161.051 11.9031 159.637ZM52.5382 171.949C52.5365 171.949 52.52 171.932 52.494 171.897C52.5269 171.932 52.5399 171.949 52.5382 171.949ZM52.3601 169.286C52.4188 169.216 52.4643 169.184 52.4723 169.186C52.4804 169.187 52.451 169.222 52.3601 169.286ZM89.0593 167.447C89.0594 167.447 89.0622 167.448 89.0672 167.452C89.0617 167.449 89.0592 167.447 89.0593 167.447ZM89.3495 167.818C89.3493 167.819 89.3475 167.814 89.3447 167.804L89.3465 167.808L89.348 167.813C89.3492 167.816 89.3497 167.818 89.3495 167.818Z" fill="#484D72" fill-opacity="0.02"/>
</svg>
