<svg width="94" height="94" viewBox="0 0 94 94" fill="none" xmlns="http://www.w3.org/2000/svg">
<g id="map-pin">
<path id="Vector" d="M78.3337 39.1668C78.3337 62.6668 47.0003 86.1668 47.0003 86.1668C47.0003 86.1668 15.667 62.6668 15.667 39.1668C15.667 30.8567 18.9682 22.887 24.8443 17.0108C30.7205 11.1347 38.6902 7.8335 47.0003 7.8335C55.3104 7.8335 63.2802 11.1347 69.1563 17.0108C75.0325 22.887 78.3337 30.8567 78.3337 39.1668Z" fill="#484D72"/>
<path id="Vector_2" fill-rule="evenodd" clip-rule="evenodd" d="M40.0435 25.5793C42.8305 23.9199 44.9753 23.4094 46.7323 23.6066C48.4893 23.8039 50.0403 24.7206 51.5913 26.2408C54.6206 29.1998 56.0263 31.0449 56.8623 32.4374C56.7169 32.5418 56.4988 32.6695 56.1838 32.8087C55.4689 33.1453 54.4995 33.4818 53.5907 33.7835C53.3362 33.6791 53.0333 33.5514 52.7425 33.447C52.5001 33.3541 52.2214 33.2497 51.9912 33.1685C52.4274 32.2053 52.5971 31.1493 52.4516 30.0702C52.2093 29.0026 51.252 26.763 49.3981 26.2524C49.3617 26.2408 49.3133 26.2524 49.2769 26.2756C46.9504 27.7261 45.0601 27.7261 43.7393 27.2503C43.6787 27.2271 43.6302 27.2039 43.5697 27.1923C43.1698 27.0299 42.8305 26.8326 42.5518 26.6121C42.5033 26.5773 42.4549 26.5309 42.4064 26.4961C42.2489 26.3684 42.0065 26.4845 42.0429 26.6817C42.055 26.7514 42.0671 26.8094 42.0671 26.879C42.1156 27.2271 42.1277 27.6217 42.1035 28.0162C42.1035 28.0858 42.0913 28.1439 42.0913 28.2135C41.9459 29.9425 41.0977 31.9268 38.5289 32.9364C38.4683 32.9596 38.4319 33.0176 38.444 33.0872C38.9893 36.4873 41.9096 37.8682 45.9568 37.346C48.1379 37.0559 49.9797 36.0115 51.1551 34.561C51.2157 34.5842 51.2763 34.6074 51.3369 34.619C51.3369 34.619 51.3611 34.6306 51.4096 34.6422C51.458 34.6538 51.5186 34.677 51.6034 34.7118C51.761 34.7698 51.9427 34.8395 52.1487 34.9207C52.5365 35.0716 52.9606 35.2456 53.2393 35.3617C53.518 35.5009 53.9421 35.8374 54.4752 36.4641C55.0084 37.0791 55.59 37.9146 56.208 38.9474C57.4319 41.0129 58.6921 43.8211 59.7099 47.1399C60.5702 49.9597 61.2852 51.7352 61.782 52.8956C61.8668 53.0813 61.9395 53.2553 62.0001 53.4062L62.0243 53.4526C61.9759 53.441 61.9274 53.4294 61.8789 53.4178C60.9338 53.1857 59.6009 52.884 58.0983 52.6751C55.9293 52.3734 53.2999 52.2458 50.8885 52.8608C51.1066 52.4662 51.3126 52.0601 51.5186 51.6423C52.4274 49.7509 53.2029 47.6273 53.6391 46.2116C53.7846 45.759 53.9421 44.9467 54.039 44.1344C54.1238 43.4266 54.1844 42.6027 54.0875 41.9877C54.0996 41.7904 54.039 41.5815 53.8815 41.4074C53.6028 41.1173 53.1423 41.0825 52.7909 41.303C50.1978 42.9624 48.1379 43.9372 46.7807 44.3085C46.0779 44.4942 45.6902 44.4942 45.5205 44.4477C45.5327 44.4245 45.5448 44.3897 45.5932 44.3317C45.6781 44.2041 45.8235 44.0416 46.0416 43.8327C46.4657 43.4266 47.0837 42.9508 47.8107 42.4518C48.9013 41.6975 50.1494 40.9201 51.2399 40.247C51.5307 40.0614 51.8215 39.8873 52.0881 39.7248C52.2214 39.69 52.3547 39.6204 52.4638 39.516C52.7546 39.2491 52.7788 38.8081 52.5486 38.4948C52.0518 37.8217 51.3732 37.4968 50.5856 37.346C49.8343 37.1951 48.8892 37.1951 47.8107 37.1951C47.011 37.1951 46.0779 37.3692 45.2418 37.6245C44.6239 37.8101 44.0059 38.0654 43.497 38.3555C43.4364 38.3207 43.3758 38.2743 43.3031 38.2395C43.2546 38.2163 43.2061 38.1815 43.1455 38.1583C42.1035 37.5665 40.7827 36.8238 38.3592 36.9514C37.9836 36.9746 37.6079 37.0095 37.2565 37.0907C37.2808 36.731 37.2808 36.3596 37.2808 36.0231C37.2687 35.2224 37.2323 34.4913 37.2202 34.2709C37.2202 34.2128 37.2081 34.1548 37.2081 34.0852C37.1475 33.2845 37.0384 31.7412 37.3414 30.105C37.5958 28.3063 38.3713 26.5773 40.0435 25.5793ZM35.4995 37.7173C35.5722 37.3112 35.5965 36.6729 35.5843 36.0115C35.5722 35.2572 35.5359 34.561 35.5238 34.3405C35.5238 34.2825 35.5116 34.2245 35.5116 34.1548C35.4511 33.3541 35.3299 31.6367 35.657 29.8149C36.0085 27.8421 36.9294 25.5909 39.1711 24.2449C42.1277 22.481 44.6481 21.7964 46.9262 22.0517C49.2042 22.307 51.0703 23.4906 52.7667 25.15C56.0384 28.3527 57.5409 30.3603 58.4497 31.9384C58.6194 32.2285 58.6436 32.5534 58.5345 32.8552C58.4376 33.1221 58.268 33.3309 58.1104 33.4702C57.7954 33.7603 57.347 34.0156 56.9108 34.2128C56.4019 34.4449 55.8081 34.677 55.2144 34.8859C55.384 35.0484 55.5537 35.234 55.7112 35.4313C56.3171 36.1391 56.9593 37.0559 57.6015 38.1467C58.8859 40.3283 60.2067 43.2525 61.2488 46.6757C62.0849 49.4259 62.7877 51.1666 63.2603 52.269C63.333 52.4314 63.3936 52.5823 63.4542 52.7331C63.5996 53.0696 63.7208 53.3482 63.8056 53.5802C63.8662 53.7427 63.9267 53.9168 63.9631 54.0792C63.9994 54.2417 64.0237 54.4506 63.9631 54.671C63.8783 55.0192 63.5875 55.17 63.4542 55.228C63.3209 55.2744 63.2118 55.286 63.1634 55.286C63.0664 55.286 62.9695 55.2744 62.921 55.2744C62.8119 55.2628 62.6787 55.228 62.5454 55.1932C62.4 55.1584 62.2182 55.112 62.0122 55.0656C61.8304 55.0192 61.6366 54.9727 61.4306 54.9263C60.5097 54.7058 59.2373 54.4157 57.8075 54.2185C54.9357 53.8239 51.6277 53.8007 49.1921 55.1584C48.877 55.4717 48.5256 55.7386 48.1621 55.9011C47.4593 56.2144 46.8413 55.727 46.6959 55.228C46.3082 53.8239 45.666 51.8744 44.951 50.3775C44.5875 49.6116 44.2361 49.0198 43.9211 48.6601C43.7878 48.5092 43.6908 48.428 43.6302 48.3932C43.4848 48.4744 43.2425 48.6949 42.9274 49.1358C42.576 49.6232 42.2246 50.2498 41.8732 50.9693C41.1825 52.4082 40.5767 54.0676 40.201 55.2396C40.0314 55.7502 39.3771 56.1912 38.6985 55.8547C37.8018 55.4137 36.481 54.1837 35.4632 51.7352C34.7725 50.0642 34.0454 48.1843 33.5608 46.3856C33.0882 44.6218 32.8216 42.8348 33.1366 41.3958C33.4517 39.9453 34.0454 38.8313 34.9664 38.0654C35.1481 37.961 35.3178 37.8334 35.4995 37.7173ZM43.6666 28.8749C43.4 30.6156 42.5154 32.5534 40.3343 33.8183C40.6373 34.5262 41.1098 35.0019 41.6915 35.3152C42.576 35.791 43.9211 36.0231 45.7265 35.7794C49.0709 35.3385 51.143 32.7739 50.84 30.3487C50.7431 29.9657 50.5129 29.3507 50.1494 28.7937C49.9191 28.4456 49.6768 28.1903 49.4466 28.0046C47.8349 28.8633 46.3203 29.165 44.9631 29.0838C44.4906 29.0606 44.0665 28.991 43.6666 28.8749ZM38.3956 38.4948C40.3222 38.3904 41.3037 38.9474 42.2731 39.4928C42.3216 39.516 42.37 39.5508 42.4306 39.574C42.5882 39.6668 42.7214 39.7596 42.879 39.8873C43.1334 40.0962 43.497 40.1194 43.7756 39.9917C43.8605 39.9685 43.9332 39.9221 44.0059 39.8757C44.3452 39.6204 44.9631 39.3303 45.6902 39.1098C46.4172 38.8893 47.1806 38.7501 47.7622 38.7501C48.8892 38.7501 49.6525 38.7617 50.2099 38.8661C50.2584 38.8777 50.3069 38.8893 50.3432 38.8893C49.2406 39.574 47.9319 40.3747 46.805 41.1638C46.0658 41.6859 45.363 42.2081 44.8541 42.6955C44.5996 42.9392 44.3573 43.1945 44.1876 43.4498C44.018 43.6935 43.8484 44.0184 43.8484 44.4013C43.8484 44.7378 43.9332 45.0744 44.1634 45.3761C44.3936 45.6778 44.7087 45.8518 45.0359 45.9447C45.6538 46.1187 46.4172 46.0259 47.1927 45.8054C48.5378 45.4457 50.319 44.6218 52.4274 43.3685C52.4153 43.5542 52.3911 43.7399 52.3668 43.9488C52.2699 44.7146 52.1245 45.4225 52.0275 45.7474C51.6034 47.1167 50.8643 49.1706 49.9918 50.9693C49.5556 51.8744 49.0952 52.6983 48.6468 53.3365C48.4408 53.6267 48.2469 53.8587 48.0773 54.0328C47.6774 52.6867 47.1079 51.0621 46.4778 49.7276C46.1022 48.927 45.666 48.1727 45.2055 47.6505C44.9753 47.3836 44.6844 47.1399 44.3573 46.9775C43.9938 46.815 43.5575 46.7454 43.1213 46.9194C42.5033 47.1515 42.0065 47.7085 41.6067 48.2655C41.1825 48.8457 40.7827 49.5768 40.4192 50.3311C39.8254 51.5611 39.2922 52.9536 38.9045 54.0676C38.3713 53.5918 37.6564 52.6983 37.0142 51.1782C36.3477 49.5768 35.6813 47.8246 35.2208 46.1768C36.4689 46.4553 37.7655 46.5713 38.8439 46.5365C39.5709 46.5133 40.2737 46.4088 40.819 46.2C41.328 46.0027 42.0065 45.5385 41.9217 44.703C41.8853 44.2853 41.6067 43.9952 41.4007 43.8211C41.1825 43.6354 40.9038 43.4846 40.6251 43.3569C40.0678 43.0901 39.3286 42.8464 38.5652 42.6375C37.3171 42.2894 35.8873 41.9993 34.7483 41.802C34.7483 41.7904 34.7483 41.7788 34.7604 41.7672C35.0391 40.5255 35.4995 39.7597 36.0569 39.2955C36.6264 38.8081 37.3777 38.5528 38.3956 38.4948ZM34.6755 43.3802C34.6998 43.7167 34.7483 44.0764 34.8088 44.4593C36.1296 44.8423 37.6079 45.0047 38.7591 44.9699C39.2922 44.9467 39.7042 44.8887 39.9829 44.8075C39.9466 44.7959 39.9102 44.7727 39.8739 44.7611C39.4377 44.5522 38.8197 44.3433 38.0805 44.146C37.0021 43.8327 35.7419 43.5658 34.6755 43.3802ZM40.3222 44.6682C40.3343 44.6566 40.3343 44.6566 40.3343 44.6566C40.3464 44.6566 40.3343 44.6566 40.3222 44.6682Z" fill="white"/>
</g>
</svg>
