<svg width="38" height="22" viewBox="0 0 38 22" fill="none" xmlns="http://www.w3.org/2000/svg">
<path fill-rule="evenodd" clip-rule="evenodd" d="M14.6324 12.8665C14.2423 11.2309 14.2585 9.76608 15.1637 8.29674C15.7596 7.32934 16.8589 6.68457 17.95 6.42781C19.1325 6.14955 20.6746 6.29664 21.7131 6.93984C22.8293 7.63108 23.6503 8.64342 23.9491 9.93269C24.2238 11.1179 24.0214 12.5144 23.3733 13.5466C22.7196 14.5877 21.677 15.495 20.463 15.7718C19.4501 16.0028 18.3876 15.9203 17.4054 15.6019L17.2126 15.5299C15.9403 15.0112 15.1546 14.0975 14.6324 12.8665ZM16.0043 11.9364L15.7292 12.3918C15.9335 12.9618 16.1829 13.3051 16.6692 13.6671C16.6903 13.6828 16.7477 13.723 16.8195 13.7734C17.0049 13.9036 17.2863 14.101 17.2839 14.115L17.3472 14.136C17.8588 14.3056 18.2714 14.4424 18.8232 14.3095L19.0622 13.905L18.8709 13.4322C18.5189 13.2566 18.1804 13.0525 17.8423 12.8486C17.2514 12.4921 16.6618 12.1365 16.0043 11.9364ZM17.2187 7.66301C16.5489 8.088 16.1814 8.57972 15.7487 9.23577L15.6702 9.83826L15.9379 10.0972C16.0066 10.0647 16.0794 10.0329 16.1532 10.0006C16.33 9.92329 16.5133 9.84313 16.6638 9.74368L18.2549 8.13589L18.1122 7.66301C17.7634 7.55058 17.5656 7.539 17.2187 7.66301Z" fill="#484D72"/>
<path fill-rule="evenodd" clip-rule="evenodd" d="M17.5699 0.443638C18.3938 0.330018 19.2417 0.327718 20.0717 0.367455C26.9599 0.697238 33.5731 6.15495 37.9998 11.025L37.5932 11.6551C34.7934 15.5716 29.8252 19.3467 25.2582 20.9289C23.9492 21.3824 22.5744 21.6084 21.2102 21.8326L20.8944 21.8846C19.0366 22.0978 17.1726 21.8841 15.3531 21.5091C10.6836 20.5468 6.41424 17.4646 3.09618 14.1513C2.95556 14.0109 2.81293 13.8702 2.66955 13.7288C1.83309 12.9038 0.97094 12.0535 0.33252 11.0816C4.99409 5.81714 10.601 1.7975 17.5699 0.443638ZM18.7521 5.16781C16.9683 5.49371 15.3887 6.13184 14.3198 7.67844C13.335 9.10321 13.0872 10.9233 13.3966 12.6034C13.6583 14.0241 14.6818 15.3605 15.8608 16.1731C16.8913 16.8834 18.4318 17.2766 19.676 17.209C21.4931 16.8905 23.0152 16.3308 24.1308 14.7423C25.0707 13.404 25.465 11.7759 25.177 10.1669C24.897 8.60188 23.8936 7.08117 22.5794 6.16682C21.4392 5.37353 20.0987 5.22972 18.7521 5.16781ZM22.4057 3.50165L22.46 3.53756C24.6364 4.97603 26.6592 6.31304 27.2153 9.04299C27.6945 11.3954 27.4254 13.8142 26.0835 15.838C25.3532 16.9393 24.3753 17.5877 23.3723 18.2527C22.8837 18.5767 22.3892 18.9047 21.9144 19.2908C23.7248 18.8454 25.3365 18.3378 26.9264 17.3444C28.8851 16.0799 30.4982 14.7054 32.1549 13.0656C32.2546 12.9669 32.3592 12.8675 32.4653 12.7665C32.9633 12.2927 33.4972 11.7848 33.7362 11.1623C33.5298 10.5127 32.9653 10.0322 32.425 9.5723C32.2861 9.45413 32.1489 9.33732 32.0197 9.21935C29.9838 7.35961 27.9704 5.71175 25.5045 4.43485C25.4356 4.39914 25.3616 4.3602 25.2835 4.31905C24.4775 3.89461 23.2273 3.2362 22.4427 3.48947L22.4057 3.50165ZM15.1699 3.50165C11.749 4.66993 8.84213 6.87628 6.27693 9.37393C6.14153 9.50576 5.9936 9.64159 5.84156 9.78121C5.37361 10.2109 4.86668 10.6764 4.56605 11.1711C6.24422 13.7261 9.64875 16.3781 12.3411 17.7809C12.4347 17.8293 12.5431 17.8871 12.6629 17.9509C13.5689 18.4339 15.1288 19.2654 15.9029 19.0184L15.9379 19.0068C15.6178 18.708 15.2628 18.4797 14.9065 18.2506C14.6466 18.0834 14.386 17.9158 14.1377 17.72C12.0343 16.0618 11.0653 14.2062 10.973 11.5263C10.8984 9.36107 11.5594 7.26193 13.0585 5.65908C13.8672 4.79439 14.7764 4.14902 15.7488 3.4881L15.1699 3.50165Z" fill="#484D72"/>
</svg>
