<svg width="217" height="37" viewBox="0 0 217 37" fill="none" xmlns="http://www.w3.org/2000/svg">
<path d="M18.5 0L22.6535 12.7832H36.0945L25.2205 20.6836L29.374 33.4668L18.5 25.5664L7.62597 33.4668L11.7795 20.6836L0.905455 12.7832H14.3465L18.5 0Z" fill="#FED76B"/>
<path d="M63.5 0L67.6535 12.7832H81.0945L70.2205 20.6836L74.374 33.4668L63.5 25.5664L52.626 33.4668L56.7795 20.6836L45.9055 12.7832H59.3465L63.5 0Z" fill="#FED76B"/>
<path d="M108.5 0L112.654 12.7832H126.095L115.221 20.6836L119.374 33.4668L108.5 25.5664L97.626 33.4668L101.779 20.6836L90.9055 12.7832H104.346L108.5 0Z" fill="#FED76B"/>
<path d="M153.5 0L157.654 12.7832H171.095L160.221 20.6836L164.374 33.4668L153.5 25.5664L142.626 33.4668L146.779 20.6836L135.905 12.7832H149.346L153.5 0Z" fill="#FED76B"/>
<path d="M198.5 0L202.654 12.7832H216.095L205.221 20.6836L209.374 33.4668L198.5 25.5664L187.626 33.4668L191.779 20.6836L180.905 12.7832H194.346L198.5 0Z" fill="#FED76B"/>
</svg>
