<svg width="20" height="20" viewBox="0 0 20 20" fill="none" xmlns="http://www.w3.org/2000/svg">
<g clip-path="url(#clip0_452_7120)">
<path d="M9.99417 3.98526C7.68648 3.98526 5.8125 5.86333 5.8125 8.16693C5.8125 10.4705 7.68648 12.3527 9.99417 12.3527C12.3019 12.3527 14.1758 10.4746 14.1758 8.17102C14.1758 5.86742 12.3019 3.98526 9.99417 3.98526ZM9.99417 11.3502C8.23885 11.3502 6.81495 9.92225 6.81495 8.17102C6.81495 6.41979 8.24294 4.99181 9.99417 4.99181C11.7454 4.99181 13.1734 6.41979 13.1734 8.17102C13.1734 9.92225 11.7495 11.3502 9.99417 11.3502Z" fill="#16171B"/>
<path d="M9.99407 0C9.89996 0 9.80176 0 9.70765 0.00409165C5.67328 0.143208 2.33859 3.27741 1.95397 7.29133C1.88032 8.06874 1.91715 8.85025 2.06035 9.59493C2.06035 9.59493 2.07263 9.68904 2.11764 9.86498C2.24039 10.4173 2.42451 10.9534 2.65773 11.4525C3.48834 13.4206 5.30913 16.4525 9.26166 19.734C9.47034 19.9059 9.7322 20 10.0023 20C10.2723 20 10.5342 19.9059 10.7428 19.734C14.6913 16.4566 16.5121 13.4206 17.3386 11.4689C17.5759 10.9574 17.76 10.4173 17.8828 9.86907C17.9073 9.77087 17.9237 9.68903 17.936 9.61129C18.0342 9.10802 18.0833 8.59247 18.0833 8.07692C18.0751 3.6252 14.4499 0 9.99407 0ZM16.9417 9.43944C16.9417 9.44763 16.9294 9.51719 16.9008 9.64403C16.7903 10.1268 16.6307 10.5974 16.418 11.0638C15.6283 12.9296 13.8934 15.8142 10.1005 18.9607C10.0636 18.9894 10.0268 18.9975 9.99816 18.9975C9.97361 18.9975 9.93269 18.9894 9.89587 18.9607C6.10291 15.8101 4.36395 12.9255 3.57017 11.0475C3.3615 10.5974 3.20192 10.1268 3.09145 9.63994C3.0669 9.53355 3.05462 9.46809 3.05053 9.44763C3.05053 9.43944 3.04644 9.43126 3.04644 9.42308C2.9196 8.75614 2.88687 8.06874 2.95233 7.38953C3.29194 3.8748 6.20929 1.1293 9.74448 1.00655C13.7584 0.867431 17.0726 4.09165 17.0726 8.08102C17.0726 8.5311 17.0276 8.98118 16.9417 9.43944Z" fill="#16171B"/>
</g>
<defs>
<clipPath id="clip0_452_7120">
<rect width="20" height="20" fill="white"/>
</clipPath>
</defs>
</svg>
