<svg width="20" height="21" viewBox="0 0 20 21" fill="none" xmlns="http://www.w3.org/2000/svg">
<g clip-path="url(#clip0_452_7123)">
<path d="M4.07569 13.7947C6.04834 16.1527 8.42297 18.0093 11.1333 19.323C12.1652 19.8121 13.5452 20.3923 15.0827 20.4917C15.1781 20.4959 15.2692 20.5 15.3645 20.5C16.3965 20.5 17.2253 20.1436 17.9008 19.4101C17.9049 19.4059 17.9132 19.3976 17.9174 19.3893C18.1577 19.0993 18.4313 18.8382 18.7172 18.5605C18.912 18.374 19.1109 18.1792 19.3015 17.9803C20.1843 17.0603 20.1843 15.8916 19.2933 15.0006L16.8026 12.5099C16.3799 12.0707 15.8743 11.8386 15.3438 11.8386C14.8134 11.8386 14.3036 12.0707 13.8685 12.5058L12.3848 13.9894C12.2481 13.9107 12.1072 13.8402 11.9746 13.7739C11.8088 13.691 11.6555 13.6123 11.5187 13.5253C10.1677 12.6674 8.941 11.5485 7.76819 10.1104C7.17557 9.36034 6.77772 8.73042 6.50006 8.08807C6.88961 7.73581 7.25431 7.36697 7.60656 7.00642C7.73089 6.87795 7.85936 6.74948 7.98783 6.62101C8.43541 6.17344 8.67577 5.65541 8.67577 5.12909C8.67577 4.60278 8.43955 4.08475 7.98783 3.63717L6.75286 2.4022C6.60781 2.25715 6.47105 2.11625 6.33014 1.9712C6.05663 1.68939 5.77068 1.3993 5.48887 1.13821C5.06201 0.719644 4.56056 0.5 4.0301 0.5C3.50379 0.5 2.99819 0.719644 2.55476 1.14235L1.00482 2.69229C0.44121 3.25591 0.122105 3.9397 0.055798 4.73125C-0.0229422 5.72172 0.159403 6.77435 0.631844 8.04662C1.35708 10.0151 2.45116 11.8427 4.07569 13.7947ZM1.06699 4.81828C1.11672 4.26709 1.32807 3.80709 1.72592 3.40924L3.26757 1.86759C3.50793 1.63552 3.77316 1.51533 4.0301 1.51533C4.2829 1.51533 4.53984 1.63552 4.77606 1.87588C5.05373 2.13282 5.31481 2.4022 5.59662 2.68815C5.73752 2.8332 5.88257 2.97824 6.02762 3.12743L7.26259 4.36241C7.51954 4.61935 7.65215 4.88044 7.65215 5.13738C7.65215 5.39432 7.51954 5.65541 7.26259 5.91235C7.13412 6.04082 7.00565 6.17344 6.87718 6.30191C6.49177 6.69146 6.13122 7.0603 5.73338 7.41256L5.71266 7.43328C5.36869 7.77725 5.42256 8.10464 5.50545 8.35329C5.50959 8.36573 5.51373 8.37402 5.51788 8.38645C5.83698 9.15313 6.28041 9.88251 6.9725 10.7528C8.21576 12.2862 9.52534 13.4755 10.9675 14.3914C11.1457 14.5075 11.3364 14.5986 11.5146 14.6898C11.6803 14.7727 11.8337 14.8514 11.9704 14.9385C11.987 14.9467 11.9994 14.955 12.016 14.9633C12.1528 15.0338 12.2854 15.0669 12.418 15.0669C12.7495 15.0669 12.965 14.8556 13.0355 14.7851L14.5854 13.2352C14.8258 12.9948 15.0869 12.8663 15.3438 12.8663C15.6588 12.8663 15.9157 13.0611 16.0773 13.2352L18.5763 15.73C19.0736 16.2273 19.0695 16.7661 18.5639 17.2924C18.3898 17.4789 18.2075 17.6571 18.0127 17.8436C17.7226 18.1254 17.4201 18.4155 17.1466 18.7429C16.67 19.2567 16.1022 19.4971 15.3687 19.4971C15.2982 19.4971 15.2236 19.493 15.1532 19.4888C13.7939 19.4018 12.5299 18.8713 11.5809 18.4196C9.00317 17.1722 6.74042 15.4026 4.86309 13.1564C3.3173 11.2957 2.2771 9.56341 1.58916 7.7068C1.1623 6.56714 1.00068 5.65126 1.06699 4.81828Z" fill="#16171B"/>
</g>
<defs>
<clipPath id="clip0_452_7123">
<rect width="20" height="20" fill="white" transform="translate(0 0.5)"/>
</clipPath>
</defs>
</svg>
