<svg width="70" height="70" viewBox="0 0 70 70" fill="none" xmlns="http://www.w3.org/2000/svg">
<circle cx="35" cy="35" r="35" fill="#6972B0"/>
<path d="M48.1827 43.575V47.95C48.1844 48.3562 48.1012 48.7582 47.9384 49.1303C47.7757 49.5024 47.5371 49.8365 47.2378 50.1111C46.9385 50.3856 46.5852 50.5947 46.2005 50.7248C45.8157 50.8549 45.408 50.9032 45.0035 50.8667C40.516 50.3791 36.2054 48.8456 32.4181 46.3896C28.8945 44.1506 25.9072 41.1632 23.6681 37.6396C21.2035 33.8351 19.6697 29.5035 19.191 24.9958C19.1546 24.5926 19.2025 24.1861 19.3318 23.8024C19.461 23.4186 19.6687 23.066 19.9417 22.767C20.2147 22.4679 20.547 22.229 20.9174 22.0653C21.2878 21.9017 21.6882 21.8171 22.0931 21.8167H26.4681C27.1759 21.8097 27.862 22.0603 28.3986 22.5218C28.9352 22.9833 29.2857 23.6242 29.3848 24.325C29.5694 25.7251 29.9119 27.0998 30.4056 28.4229C30.6018 28.9449 30.6443 29.5122 30.528 30.0575C30.4117 30.6029 30.1415 31.1035 29.7494 31.5L27.8973 33.3521C29.9733 37.0031 32.9963 40.0261 36.6473 42.1021L38.4994 40.25C38.8959 39.8579 39.3965 39.5877 39.9418 39.4714C40.4872 39.3551 41.0545 39.3975 41.5765 39.5938C42.8996 40.0875 44.2743 40.4299 45.6744 40.6146C46.3828 40.7145 47.0297 41.0713 47.4922 41.6172C47.9547 42.163 48.2004 42.8598 48.1827 43.575Z" stroke="white" stroke-width="3" stroke-linecap="round" stroke-linejoin="round"/>
<path d="M36.5894 21.8167C39.5618 22.1299 42.3384 23.4482 44.4598 25.5537C46.5812 27.6593 47.9204 30.4258 48.256 33.3958" stroke="white" stroke-width="3" stroke-linecap="round" stroke-linejoin="round"/>
<path d="M36.5894 27.65C38.0236 27.9328 39.3398 28.6403 40.367 29.6805C41.3942 30.7207 42.085 32.0456 42.3498 33.4834" stroke="white" stroke-width="3" stroke-linecap="round" stroke-linejoin="round"/>
</svg>
