<svg width="70" height="70" viewBox="0 0 70 70" fill="none" xmlns="http://www.w3.org/2000/svg">
<circle cx="35" cy="35" r="35" fill="#6972B0"/>
<path d="M29.2254 48C32.5654 49.7133 36.4075 50.1774 40.0594 49.3086C43.7114 48.4398 46.9329 46.2952 49.1435 43.2613C51.3541 40.2274 52.4084 36.5037 52.1164 32.7612C51.8245 29.0188 50.2054 25.5037 47.5511 22.8493C44.8967 20.1949 41.3816 18.5759 37.6391 18.2839C33.8967 17.992 30.173 19.0463 27.1391 21.2569C24.1052 23.4675 21.9606 26.689 21.0918 30.3409C20.223 33.9928 20.687 37.835 22.4004 41.175L18.9004 51.5L29.2254 48Z" stroke="white" stroke-width="3" stroke-linecap="round" stroke-linejoin="round"/>
<path d="M43.0505 29.1C42.2327 28.2984 41.1332 27.8494 39.988 27.8494C38.8428 27.8494 37.7433 28.2984 36.9255 29.1L36.4005 29.8L35.788 29.275C35.3868 28.8408 34.8992 28.4953 34.3564 28.2609C33.8137 28.0265 33.2279 27.9084 32.6367 27.9141C32.0455 27.9198 31.4621 28.0491 30.9239 28.2939C30.3858 28.5387 29.9049 28.8934 29.5121 29.3353C29.1193 29.7772 28.8234 30.2964 28.6434 30.8595C28.4634 31.4226 28.4033 32.0172 28.467 32.605C28.5307 33.1927 28.7167 33.7606 29.0131 34.2722C29.3095 34.7837 29.7097 35.2275 30.188 35.575L36.488 41.7L42.788 35.575C44.888 33.475 44.713 30.85 43.138 29.1" stroke="white" stroke-width="3" stroke-linecap="round" stroke-linejoin="round"/>
</svg>
