<svg width="70" height="70" viewBox="0 0 70 70" fill="none" xmlns="http://www.w3.org/2000/svg">
<circle cx="35" cy="35" r="35" fill="#6972B0"/>
<path d="M49.7871 28.1312V25.7249C49.7871 24.874 49.4491 24.058 48.8474 23.4563C48.2457 22.8546 47.4297 22.5166 46.5788 22.5166H24.1204C23.2695 22.5166 22.4535 22.8546 21.8518 23.4563C21.2501 24.058 20.9121 24.874 20.9121 25.7249V48.1833C20.9121 49.0342 21.2501 49.8502 21.8518 50.4519C22.4535 51.0536 23.2695 51.3916 24.1204 51.3916H29.735" stroke="white" stroke-width="3" stroke-linecap="round" stroke-linejoin="round"/>
<path d="M41.7661 19.3083V25.725" stroke="white" stroke-width="3" stroke-linecap="round" stroke-linejoin="round"/>
<path d="M28.9331 19.3083V25.725" stroke="white" stroke-width="3" stroke-linecap="round" stroke-linejoin="round"/>
<path d="M20.9121 32.1416H28.9329" stroke="white" stroke-width="3" stroke-linecap="round" stroke-linejoin="round"/>
<path d="M44.1724 44.1729L41.7661 42.2479V38.5583" stroke="white" stroke-width="3" stroke-linecap="round" stroke-linejoin="round"/>
<path d="M41.7661 51.3916C47.0819 51.3916 51.3911 47.0823 51.3911 41.7666C51.3911 36.4509 47.0819 32.1416 41.7661 32.1416C36.4504 32.1416 32.1411 36.4509 32.1411 41.7666C32.1411 47.0823 36.4504 51.3916 41.7661 51.3916Z" stroke="white" stroke-width="3" stroke-linecap="round" stroke-linejoin="round"/>
</svg>
