<svg width="102" height="102" viewBox="0 0 102 102" fill="none" xmlns="http://www.w3.org/2000/svg">
<g filter="url(#filter0_d_1495_10284)">
<circle cx="51" cy="51" r="35" fill="#484D72"/>
</g>
<path d="M45.2254 64.3C48.5654 66.0134 52.4075 66.4774 56.0594 65.6086C59.7113 64.7398 62.9329 62.5952 65.1435 59.5613C67.3541 56.5274 68.4084 52.8037 68.1164 49.0613C67.8244 45.3188 66.2054 41.8037 63.5511 39.1493C60.8967 36.495 57.3816 34.8759 53.6391 34.584C49.8966 34.292 46.173 35.3463 43.1391 37.5569C40.1052 39.7675 37.9606 42.9891 37.0918 46.641C36.223 50.2929 36.687 54.135 38.4004 57.475L34.9004 67.8L45.2254 64.3Z" stroke="white" stroke-width="3" stroke-linecap="round" stroke-linejoin="round"/>
<path d="M45.4004 50.3H45.4179" stroke="white" stroke-width="4" stroke-linecap="round" stroke-linejoin="round"/>
<path d="M52.4004 50.3H52.4179" stroke="white" stroke-width="4" stroke-linecap="round" stroke-linejoin="round"/>
<path d="M59.4004 50.3H59.4179" stroke="white" stroke-width="4" stroke-linecap="round" stroke-linejoin="round"/>
<defs>
<filter id="filter0_d_1495_10284" x="0.5" y="0.5" width="101" height="101" filterUnits="userSpaceOnUse" color-interpolation-filters="sRGB">
<feFlood flood-opacity="0" result="BackgroundImageFix"/>
<feColorMatrix in="SourceAlpha" type="matrix" values="0 0 0 0 0 0 0 0 0 0 0 0 0 0 0 0 0 0 127 0" result="hardAlpha"/>
<feOffset/>
<feGaussianBlur stdDeviation="7.75"/>
<feComposite in2="hardAlpha" operator="out"/>
<feColorMatrix type="matrix" values="0 0 0 0 0.282353 0 0 0 0 0.301961 0 0 0 0 0.447059 0 0 0 0.54 0"/>
<feBlend mode="normal" in2="BackgroundImageFix" result="effect1_dropShadow_1495_10284"/>
<feBlend mode="normal" in="SourceGraphic" in2="effect1_dropShadow_1495_10284" result="shape"/>
</filter>
</defs>
</svg>
