<svg width="70" height="70" viewBox="0 0 70 70" fill="none" xmlns="http://www.w3.org/2000/svg">
<path d="M35 70C54.33 70 70 54.33 70 35C70 15.67 54.33 0 35 0C15.67 0 0 15.67 0 35C0 54.33 15.67 70 35 70Z" fill="url(#paint0_linear_1495_10259)"/>
<path fill-rule="evenodd" clip-rule="evenodd" d="M15.8101 34.6183C26.0048 30.1479 32.8194 27.2585 36.254 25.8411C45.958 21.8068 47.9752 21.0981 49.2836 21.0436C49.5562 21.0436 50.2104 21.0981 50.6465 21.4252C50.9736 21.6978 51.0827 22.0794 51.1372 22.352C51.1917 22.6246 51.2462 23.2243 51.1917 23.7149C50.6465 29.2212 48.4113 42.6869 47.2119 48.8473C46.7213 51.4641 45.74 52.3364 44.8132 52.4454C42.7961 52.609 41.2151 51.0825 39.2524 49.8286C36.1995 47.8115 34.4549 46.5576 31.4565 44.595C28.0219 42.3053 30.2571 41.0514 32.2197 39.0342C32.7104 38.4891 41.7057 30.366 41.8693 29.6028C41.8693 29.4937 41.9238 29.1666 41.7057 29.0031C41.4876 28.8395 41.2151 28.894 40.997 28.9486C40.6699 29.0031 35.7633 32.2741 26.2228 38.7071C24.8054 39.6884 23.5515 40.1246 22.4066 40.1246C21.1528 40.1246 18.754 39.4159 16.9549 38.8162C14.7742 38.1074 13.0297 37.7258 13.1933 36.5264C13.3023 35.9268 14.1746 35.2726 15.8101 34.6183Z" fill="white"/>
<defs>
<linearGradient id="paint0_linear_1495_10259" x1="0" y1="34.9746" x2="69.9494" y2="34.9746" gradientUnits="userSpaceOnUse">
<stop stop-color="#2AABEE"/>
<stop offset="1" stop-color="#229ED9"/>
</linearGradient>
</defs>
</svg>
